<svg xmlns="http://www.w3.org/2000/svg" viewBox="0 0 568 274"><g fill="none" stroke-width="2"><path stroke="#88b29e" d="M123.35 49.6q-1.49 1.63-1.41-.58l.36-9.86a.64.64 0 0 0-.64-.66h-4.41q-.49 0-.49.5l-.03 25.87q0 .63.63.63h4.07q.51 0 .53-.5l.34-10.05q.02-.69.61-1.07 1.93-1.24 3.95-.22a1.01 1-77.6 0 1 .56.89l.12 10.35a.61.6 89.1 0 0 .61.6l4.26-.01a.63.63 0 0 0 .63-.65q-.12-5.55-.35-11.09c-.2-4.77-6.47-7.26-9.34-4.15" vector-effect="non-scaling-stroke"/><path stroke="#f7ada1" d="m462.66 140.53-.04-46.18a.72.72 0 0 0-.39-.64q-1.17-.58-1.14 1.04.12 5.35-.24 10.69-.04.54-.51.28c-8.26-4.45-18.89-2.98-19.72 8.28-.64 8.69-.42 17.53-.37 26.25q0 .5-.5.5h-20.29a.49.48 0 0 1-.49-.48l.06-54.03q.01-.71.72-.72 9.03-.07 18.06 0c3.11.02 2.81 1.67 2.57 4.06q-.21 2.16 1.16.48 1.22-1.48 2.9-2.34a.44.44 0 0 0-.04-.81q-55.37-21.72-110.8-43.26c-1.68-.65-2.93-.43-4.59-.12q-68.89 12.88-137.07 25.76-1.29.25.03.24l13.87-.05q.6 0 .6.6l.09 14.78a.64.63 0 0 0 .64.63l9.33.01q.5 0 .5.5v14.95a.35.35 0 0 0 .66.15c7.35-15.35 25.54-20.37 41.42-16.2 16.53 4.34 26.15 21.61 20.36 37.95-11.97 33.79-72.65 23.58-63.09-18.88q.1-.46-.36-.46l-8.88-.03q-.61-.01-.61.6V140q0 .75-.75.75h-19.99q-.5 0-.5-.49l-.34-36.02q-.01-.73-.74-.74l-4.78-.01a.65.65 0 0 1-.65-.65V86.25q0-.75.75-.75h5.29a.54.54 0 0 0 .54-.55l-.34-13.86q-.02-.62-.63-.51L98.84 86.63a.81.81 0 0 0-.61 1.08l19.52 51.98a.75.75 0 0 1-.69 1.01l-10.53.17q-1.71.02-.13.68l100.35 41.69a6.47 6.43-38.1 0 0 3.46.41l266.47-42.67a.12.12 0 0 0 .09-.16q-.04-.14-.09-.29l-.18.01-13.22.58q-.62.03-.62-.59" vector-effect="non-scaling-stroke"/><path stroke="#88b29e" d="M111.5 48.24v-3.99q0-.5-.5-.5h-4.2a.72.72 0 0 0-.72.77l.23 3.42q.03.48-.43.64l-.95.32q-.43.15-.43.6V53q0 .56.55.49.46-.06.74.66.15.39.16.81l.37 10.08q.02.46.47.46H111a.5.5 0 0 0 .5-.5V54.12q0-.62.63-.62h1.84q.46 0 .49-.47l.15-3.54a.69.68 2 0 0-.68-.72l-1.94-.03q-.49-.01-.49-.5M142.24 58.25h10.25q.56 0 .55-.56-.25-9.92-9.65-9.16c-8.48.68-9.7 12.85-2.91 16.51 3.89 2.1 10.48 1.28 12.04-3.72a.58.57-74.8 0 0-.41-.73q-3.36-.8-6 1.14-.42.3-.94.29-2.92-.07-3.51-3.07-.14-.7.58-.7M90.42 124.34a.39.39 0 0 1 .37.26l4.89 13.18a.39.39 0 0 0 .36.25l17.67-.04a.39.39 0 0 0 .36-.53L86.29 63.75a.39.39 0 0 0-.37-.25H66.41a.39.39 0 0 0-.37.25l-28.39 73.72a.39.39 0 0 0 .37.53h17.47a.39.39 0 0 0 .37-.25l5.08-12.96a.39.39 0 0 1 .36-.25l29.12-.2M203.84 88.3a.37.37 0 0 1-.38-.38l.19-15.3a.37.37 0 0 0-.37-.37H188.1a.37.37 0 0 0-.37.37l.07 15.31a.37.37 0 0 1-.38.37l-5.29-.17a.37.37 0 0 0-.38.37v11.84a.37.37 0 0 0 .39.37l5.3-.31a.37.37 0 0 1 .39.37l.02 36.9a.37.37 0 0 0 .37.37l14.91-.06a.37.37 0 0 0 .37-.37v-36.79a.37.37 0 0 1 .37-.37l10.01.14a.37.37 0 0 0 .37-.37V88.53a.37.37 0 0 0-.37-.37l-10.04.14M277.61 107.4c-4.67-23.02-38.91-28.28-53.51-11.31-9.51 11.06-7.93 28.34 3.39 37.41 8.47 6.8 22.3 8.12 32.52 4.79 13.42-4.37 20.38-17.14 17.6-30.89M481.2 96.48l.07-7.71q0-.51-.5-.51l-14.76-.04q-.51 0-.51.52v48.76q0 .5.5.5h14.74a.54.53-90 0 0 .53-.54q-.06-11.87.01-23.78.03-6.38 1.29-9c3.08-6.46 13.43-8.03 17.7-1.92 3.97 5.68 2.24 27.25 2.23 34.73q0 .51.51.51h14.47q.83 0 .82-.83-.15-15.89-.11-30.17c.03-11.65-4.67-18.67-16.68-19.82q-12.12-1.15-19.72 9.49a.33.32 62.8 0 1-.59-.19M438.4 99.21a.47.47 0 0 1-.9-.19V88.87q0-.63-.63-.63l-14.6-.02q-.52 0-.52.52v48.75q0 .48.48.48l14.81.09a.45.45 0 0 0 .45-.45c.02-12.97-4.96-43.25 20.31-35.93q.5.14.5-.38l-.07-13.1q-.01-.61-.61-.64-13.84-.72-19.22 11.65" vector-effect="non-scaling-stroke"/><path stroke="#f7ada1" d="M42.84 115.08a.47.47 0 0 0 .62-.26l7.07-18.34a.47.47 0 0 0-.52-.63l-35.36 6.48a.47.47 0 0 0-.09.89l28.28 11.86M486.25 103.9c-2.12 3-1.89 4.5-2.05 8.84q-.46 13.15-.02 26.33.02.62.63.53l14.08-2.09a.71.71 0 0 0 .61-.7v-27.72a.85.85 0 0 0-.54-.79l-11.83-4.66a.75.75 0 0 0-.88.26M521.63 117.13a.5.5 0 0 0-.68.46l-.28 15.78a.5.5 0 0 0 .58.51l29.06-4.62a.5.5 0 0 0 .1-.96l-28.78-11.17M73.77 127.43a.21.21 0 0 0-.08.41l17.04 7.14a.54.53-88.6 0 0 .71-.68l-2.32-6.27a1.21 1.2 79.2 0 0-1.14-.78l-14.21.18" vector-effect="non-scaling-stroke"/><path stroke="#88b29e" d="m405.54 184.9-.06-21.4a.43.43 0 0 0-.47-.43l-3.63.26q-.63.04-.63.68 0 10.62.01 21.24c0 3.57 3.92 4.16 6.61 3.41a1.61 1.61 0 0 0-.43-3.16h-.79q-.61 0-.61-.6M416.79 177.87a.38.38 0 0 1-.68-.23l-.17-14.29a.38.38 0 0 0-.38-.37l-4.19.07a.38.38 0 0 0-.37.38v24.7a.38.38 0 0 0 .38.38l4.53-.03a.38.38 0 0 0 .38-.4l-.36-6.59a.38.38 0 0 1 .68-.25l5.36 7.11a.38.38 0 0 0 .3.15h5.38a.38.38 0 0 0 .29-.62l-6.69-8.15a.38.38 0 0 1 0-.48l6.33-7.63a.38.38 0 0 0-.29-.62h-4.94a.38.38 0 0 0-.3.15l-5.26 6.72M368.4 182.34a.3.3 0 0 1-.57 0l-5.97-18.38a.3.3 0 0 0-.29-.21h-5.12a.3.3 0 0 0-.29.4l8.66 24.15a.3.3 0 0 0 .28.2h5.93a.3.3 0 0 0 .28-.2l8.65-24.16a.3.3 0 0 0-.29-.4l-5.03.02a.3.3 0 0 0-.29.21l-5.95 18.37M397.47 179.8a9.45 9.45 0 0 0-9.45-9.45 9.45 9.45 0 0 0-9.45 9.45 9.45 9.45 0 0 0 9.45 9.45 9.45 9.45 0 0 0 9.45-9.45M435.4 176.98a1.29 1.29 0 0 1 .1-2.49q2.98-.63 5.88.47a.96.96 0 0 0 1.01-.2q1.25-1.18.81-2.99-.09-.38-.47-.49-4.84-1.37-8.46-.53c-3.7.87-6.01 5.19-3.56 8.53 1.55 2.12 5.63 2.17 7.75 3.4a1.35 1.35 0 0 1-.5 2.5q-3.22.43-6.25-.95a.92.91-56.5 0 0-1.05.22q-1.13 1.23-.89 2.88.07.5.55.67c5.28 1.87 15.55 2.19 13.39-6.71-.67-2.76-6.12-3.65-8.31-4.31M488.41 187.61q1.53 1.46 3.79 1.54a2.24 2.23-81.8 0 0 2.24-1.68q.46-1.84-1.36-2.12-.58-.09-.58-.67c-.02-5.78 1.64-13.91-7.26-14.22q-3.09-.1-7.11 1.27-.56.19-.4.76l.81 2.77a.6.59 70.3 0 0 .81.39c2.66-1.11 8.02-2.45 8.26 1.64q.04.57-.53.51c-16.56-1.73-11.76 16.6.39 9.69q.52-.29.94.12" vector-effect="non-scaling-stroke"/><path stroke="#88b29e" d="M508.72 187.93c.62 5.66-5.71 4.6-8.79 3.29a.87.87 0 0 0-1.17.56l-.68 2.33q-.15.51.33.73c4.48 2.11 11.92 2.5 14.42-2.62 2.02-4.16.95-15.55.9-20.49q-.01-.54-.54-.67-2.26-.55-3.86.87-.35.3-.74.07c-14.93-9.02-18.1 22.4-.46 15.57q.53-.21.59.36M522.76 181.25h10.52q.6 0 .74-.59c3.34-14.82-21.6-13.36-16.05 3.15 2.19 6.5 9.74 5.86 14.98 4.22q.5-.15.36-.66l-.69-2.65q-.16-.64-.8-.46c-3.27.93-8.44 1.9-9.45-2.52q-.11-.49.39-.49M542.72 172.02q-1.82-1.68-4.32-.9-.35.12-.36.49l-.13 16.33q-.01.53.53.54l4.17.07q.51.01.5-.51-.2-5.39-.07-10.79c.08-3.15 4.71-3.02 6.26-1.59a1.41 1.37-69.3 0 1 .45 1.03V188q0 .5.5.5h3.98q.49 0 .5-.49c.06-3.94.79-11.74-1-14.82-1.89-3.26-7.28-3.56-10.19-1.15q-.42.35-.82-.02M454.35 182.09a.33.33 0 0 1-.63-.01l-2.91-10.83a.33.33 0 0 0-.32-.24l-4.48-.02a.33.33 0 0 0-.32.43l5.15 16.85a.33.33 0 0 0 .31.23h5.07a.33.33 0 0 0 .31-.23l3.57-11.29a.33.33 0 0 1 .63 0l3.56 11.29a.33.33 0 0 0 .31.23h5.09a.33.33 0 0 0 .32-.24l5.06-16.84a.33.33 0 0 0-.31-.42h-4.45a.33.33 0 0 0-.32.25l-2.74 10.87a.33.33 0 0 1-.64.01l-3.41-10.9a.33.33 0 0 0-.31-.23h-4.94a.33.33 0 0 0-.31.23l-3.29 10.86M343.49 227.27c-5.73-3.11 1.36-9.52 5.94-3.67a.57.57 0 0 0 .89.01l3.08-3.73a.65.65 0 0 0-.06-.89q-5.41-4.94-12.66-2.79c-5.99 1.78-7.92 9.62-4.2 14.1q1.09 1.3 4.54 3.24c1.83 1.03 7.27 3.24 6.47 5.96-1.42 4.86-7.02 3.13-9.5.33q-.68-.77-1.34.02l-3.24 3.88q-.38.46.05.87c6.7 6.28 20.62 4.93 20.75-6.3.08-6.75-6.02-8.48-10.72-11.03M149.1 239.98c-6.82 3.98-15.7 2.28-16.75-6.12-1.3-10.44 7.99-14.82 16.64-9.77q.65.38.67-.38l.13-5.85q.01-.55-.52-.74c-10.99-3.81-22.09.29-23.77 12.86-1.92 14.39 11.33 21.55 23.71 16.74q.51-.2.51-.74l.04-5.62a.44.44 0 0 0-.66-.38M187.28 232a16.53 16.53 0 0 0-16.53-16.53A16.53 16.53 0 0 0 154.22 232a16.53 16.53 0 0 0 16.53 16.53A16.53 16.53 0 0 0 187.28 232M366.743 216.494a.48.48 0 0 0-.48-.48l-6.06.011a.48.48 0 0 0-.48.481l.054 30.76a.48.48 0 0 0 .48.48l6.06-.011a.48.48 0 0 0 .48-.481l-.054-30.76M210.74 236.84c-.32 6.31-8.77 7.54-11.06 2.55-1.89-4.13-.67-17.39-.61-22.74a.39.38 90 0 0-.38-.39l-5.73-.01q-.67-.01-.68.66-.12 10.28.05 20.52c.25 15.08 25.37 15.02 25.29-1.95q-.04-9.34-.18-18.73-.01-.5-.5-.5h-5.43q-.6 0-.58.6.3 10.06-.19 19.99M232.22 226.68l14.28 20.3q.3.43.83.45l4.96.22a.68.68 0 0 0 .71-.68V217q0-.75-.75-.75h-4.92q-.67 0-.66.67l.28 20.3a.11.11 0 0 1-.2.07l-14.18-20.51q-.37-.53-1.02-.53h-5.18q-.62 0-.62.63v29.99q0 .62.62.62l5.4.02q.6 0 .59-.6l-.52-20.1q-.02-.69.38-.13M264.07 222.5a.44.44 0 0 1 .44.44l-.03 24.2a.44.44 0 0 0 .45.44l5.89-.12a.44.44 0 0 0 .43-.44v-24.36a.44.44 0 0 1 .45-.44l5.6.11a.44.44 0 0 0 .45-.44v-5.2a.44.44 0 0 0-.44-.44h-19.45a.44.44 0 0 0-.44.46l.28 5.37a.44.44 0 0 0 .44.42h5.93M289.25 235.23a.23.23 0 0 1 .42-.12l7.46 12.12a.83.82 72.9 0 0 .71.38l6.71-.16q.72-.02.32-.61l-7.95-11.98q-.29-.44.21-.62 6.26-2.15 6.47-8.2c.4-11.47-12.42-10.17-20.72-9.65q-.38.02-.38.4v30.4a.43.43 0 0 0 .44.43l5.48-.14a.85.84-.7 0 0 .83-.84v-11.41M319.41 227.92a.17.17 0 0 1-.31 0l-5.75-11.19q-.25-.48-.79-.48h-6.52q-.77 0-.39.67 4.07 7.14 8.53 14.1c2.25 3.53 1.41 10.99 1.27 15.35a1.11 1.11 0 0 0 1.1 1.14l5.49.04a.46.46 0 0 0 .46-.46v-13.3q0-.53.28-.98l9.73-15.61a.62.62 0 0 0-.53-.95h-6.19a.89.87-75.9 0 0-.78.48l-5.6 11.19M374.95 216.63l.1 30.48a.38.38 0 0 0 .38.38l9.81-.03a15.29 14.93-.2 0 0 15.24-14.98v-1.38a15.29 14.93-.2 0 0-15.34-14.88l-9.81.03a.38.38 0 0 0-.38.38M413.25 235.18a.49.49 0 0 1 .5-.49l9.5.09a.49.49 0 0 0 .5-.49v-5.15a.49.49 0 0 0-.5-.49l-9.5.12a.49.49 0 0 1-.5-.49v-5.39a.49.49 0 0 1 .5-.49l9.75.14a.49.49 0 0 0 .5-.49v-5.25a.49.49 0 0 0-.49-.49l-16.52-.09a.49.49 0 0 0-.49.49v30.3a.49.49 0 0 0 .49.49h16.52a.49.49 0 0 0 .49-.49v-5.02a.49.49 0 0 0-.49-.49h-9.77a.49.49 0 0 1-.49-.49v-5.83" vector-effect="non-scaling-stroke"/><path stroke="#f7ada1" d="m304.32 88.01-.23-34.24q-.01-.65-.66-.69-10.05-.76-20.11.04-.55.05-.55.6l.03 85.97q0 .14-.1.23-.08.09-.19.18a.36.36 0 0 0 .23.63l20.73.03q.48 0 .5-.48l.1-2.29q.04-.96.8-.38c12.71 9.52 29 4.22 37.3-8.02 6.58-9.68 6.17-23.84-.18-33.26-8.52-12.62-23.79-16.13-37.27-8.1q-.4.24-.4-.22" vector-effect="non-scaling-stroke"/><path stroke="#f7ada1" d="M390.71 88.3c-12.45-8.92-31.61-3.55-38.46 9.95-7.62 15-2.84 33.52 12.47 41.28q13.39 6.79 25.98-1.67.8-.54.8.43v1.95q0 .5.5.5l20.24.04q.51 0 .51-.52V86a.5.5 0 0 0-.5-.5h-20.27q-.85 0-.73.84l.22 1.49a.49.48-76.5 0 1-.76.47M155.65 116c.15 12.46-16.15 11.36-16.14 1.98q0-15.96-.02-31.97 0-.51-.5-.51h-20.22a.51.51 0 0 0-.51.51q-.04 14.55 0 29.13.03 9.96 1.54 13.91c7.24 18.85 48.36 19.1 55.66-.45q1.3-3.48 1.27-12.33c-.03-9.94.75-20.33-.09-30.2q-.05-.57-.62-.57h-20.01q-.52 0-.52.52-.02 15.02.16 29.98" vector-effect="non-scaling-stroke"/><path stroke="#88b29e" d="M141.87 53.68a.62.62 0 0 0 .37 1.12l5.06-.1a.62.62 0 0 0 .33-1.13l-2.57-1.68a.62.62 0 0 0-.69.01l-2.5 1.78M301.94 130.11q7.8 12.14 21.81 9.14c27.52-5.88 27.29-48.02-1.19-52.38q-11.82-1.81-20.64 7.81-.39.43-.62-.1-.26-.58.02-1.2.16-.36.16-.76l-.31-36.41q-.01-.46-.46-.46H286q-.5 0-.5.5v81.11a.61.61 0 0 0 .61.61l14.95.15a.43.43 0 0 0 .44-.43v-7.45q0-.82.44-.13" vector-effect="non-scaling-stroke"/><path stroke="#88b29e" d="M327.54 113.15a13.32 13.32 0 0 0-13.32-13.32 13.32 13.32 0 0 0-13.32 13.32 13.32 13.32 0 0 0 13.32 13.32 13.32 13.32 0 0 0 13.32-13.32M65.82 111.58a.32.32 0 0 0 .31.42h19.7a.32.32 0 0 0 .31-.42l-9.86-29a.32.32 0 0 0-.6 0l-9.86 29" vector-effect="non-scaling-stroke"/><path stroke="#f7ada1" d="M69.69 108.58a.5.5 0 0 0 .47.66l11.65.02a.5.5 0 0 0 .48-.66l-5.8-17a.5.5 0 0 0-.94 0l-5.86 16.98" vector-effect="non-scaling-stroke"/><path stroke="#88b29e" d="M394.38 94.29a.46.46 0 0 1-.82.31c-10.15-12.32-27.95-9.71-36.87 2.29-8.76 11.77-6.07 29.95 5.54 38.04 10.52 7.33 23.72 6.79 31.4-4.46a.48.48 0 0 1 .87.28l-.18 6.04a1.17 1.17 0 0 0 1.17 1.21l13.99.02q.51.01.51-.5l.18-48.35q0-.94-.94-.94l-14.39.03q-.66 0-.64.66l.18 5.37M149.92 127.54c-7.48 1.31-13.13-2.89-13.12-10.8q.01-14.06-.09-28.1 0-.44-.43-.44l-14.84.07a.63.63 0 0 0-.63.62q-.22 14.06.04 28.15.15 8.08 1.79 11.71c6.51 14.35 35.48 14.65 45.73 5.63 7.15-6.29 5.87-15.83 5.76-24.59-.08-5.68.39-14.01-.15-21.07q-.03-.47-.5-.47h-14.47q-.51 0-.51.51.01 11.68-.02 23.33c-.02 7.33-.58 14.05-8.56 15.45M261.8 113.17a13.62 13.62 0 0 0-13.62-13.62 13.62 13.62 0 0 0-13.62 13.62 13.62 13.62 0 0 0 13.62 13.62 13.62 13.62 0 0 0 13.62-13.62" vector-effect="non-scaling-stroke"/><path stroke="#88b29e" d="M394.78 113.15a13.29 13.29 0 0 0-13.29-13.29 13.29 13.29 0 0 0-13.29 13.29 13.29 13.29 0 0 0 13.29 13.29 13.29 13.29 0 0 0 13.29-13.29" vector-effect="non-scaling-stroke"/><path stroke="#f7ada1" d="M259.04 113.15a10.88 10.88 0 0 0-10.88-10.88 10.88 10.88 0 0 0-10.88 10.88 10.88 10.88 0 0 0 10.88 10.88 10.88 10.88 0 0 0 10.88-10.88M324.81 113.14a10.61 10.61 0 0 0-10.61-10.61 10.61 10.61 0 0 0-10.61 10.61 10.61 10.61 0 0 0 10.61 10.61 10.61 10.61 0 0 0 10.61-10.61M391.99 113.17a10.54 10.54 0 0 0-10.54-10.54 10.54 10.54 0 0 0-10.54 10.54 10.54 10.54 0 0 0 10.54 10.54 10.54 10.54 0 0 0 10.54-10.54" vector-effect="non-scaling-stroke"/><path stroke="#88b29e" d="M388.072 184.93a5.15 4.25 89.2 0 0 4.178-5.21 5.15 4.25 89.2 0 0-4.322-5.09 5.15 4.25 89.2 0 0-4.178 5.21 5.15 4.25 89.2 0 0 4.322 5.09M487.5 182.174a1.32 1.32 0 0 0-1.479-1.14l-3.391.441a1.32 1.32 0 0 0-1.14 1.48l.13.991a1.32 1.32 0 0 0 1.479 1.14l3.391-.441a1.32 1.32 0 0 0 1.14-1.48l-.13-.991M508.72 182.8l.06-6.44a1.77 1.77 0 0 0-1.75-1.79l-1.54-.02a4.48 4.17-89.4 0 0-4.21 4.44l-.02 1.02a4.48 4.17-89.4 0 0 4.13 4.52l1.54.02a1.77 1.77 0 0 0 1.79-1.75M522.83 178.28l6.24-.02a.5.5 0 0 0 .5-.5l-.01-.17a3.35 3.23 89.8 0 0-3.24-3.34h-.78a3.35 3.23 89.8 0 0-3.22 3.36l.01.17a.5.5 0 0 0 .5.5M180.61 231.94a9.83 9.83 0 0 0-9.83-9.83 9.83 9.83 0 0 0-9.83 9.83 9.83 9.83 0 0 0 9.83 9.83 9.83 9.83 0 0 0 9.83-9.83M289.23 222.17v7.22a.57.57 0 0 0 .57.57h1.91a5.04 3.74 0 0 0 5.04-3.74v-.88a5.04 3.74 0 0 0-5.04-3.74h-1.91a.57.57 0 0 0-.57.57M381.47 222.77l.1 18.36a1.05 1.05 0 0 0 1.05 1.05l1.44-.01a9.27 9.14-.3 0 0 9.23-9.19l-.02-2.18a9.27 9.14-.3 0 0-9.31-9.09l-1.44.01a1.05 1.05 0 0 0-1.05 1.05" vector-effect="non-scaling-stroke"/></g><path fill="#fff" d="M0 0h568v274H0V0Zm123.35 49.6q-1.49 1.63-1.41-.58l.36-9.86a.64.64 0 0 0-.64-.66h-4.41q-.49 0-.49.5l-.03 25.87q0 .63.63.63h4.07q.51 0 .53-.5l.34-10.05q.02-.69.61-1.07 1.93-1.24 3.95-.22a1.01 1-77.6 0 1 .56.89l.12 10.35a.61.6 89.1 0 0 .61.6l4.26-.01a.63.63 0 0 0 .63-.65q-.12-5.55-.35-11.09c-.2-4.77-6.47-7.26-9.34-4.15Zm339.31 90.93-.04-46.18a.72.72 0 0 0-.39-.64q-1.17-.58-1.14 1.04.12 5.35-.24 10.69-.04.54-.51.28c-8.26-4.45-18.89-2.98-19.72 8.28-.64 8.69-.42 17.53-.37 26.25q0 .5-.5.5h-20.29a.49.48 0 0 1-.49-.48l.06-54.03q.01-.71.72-.72 9.03-.07 18.06 0c3.11.02 2.81 1.67 2.57 4.06q-.21 2.16 1.16.48 1.22-1.48 2.9-2.34a.44.44 0 0 0-.04-.81q-55.37-21.72-110.8-43.26c-1.68-.65-2.93-.43-4.59-.12q-68.89 12.88-137.07 25.76-1.29.25.03.24l13.87-.05q.6 0 .6.6l.09 14.78a.64.63 0 0 0 .64.63l9.33.01q.5 0 .5.5v14.95a.35.35 0 0 0 .66.15c7.35-15.35 25.54-20.37 41.42-16.2 16.53 4.34 26.15 21.61 20.36 37.95-11.97 33.79-72.65 23.58-63.09-18.88q.1-.46-.36-.46l-8.88-.03q-.61-.01-.61.6V140q0 .75-.75.75h-19.99q-.5 0-.5-.49l-.34-36.02q-.01-.73-.74-.74l-4.78-.01a.65.65 0 0 1-.65-.65V86.25q0-.75.75-.75h5.29a.54.54 0 0 0 .54-.55l-.34-13.86q-.02-.62-.63-.51L98.84 86.63a.81.81 0 0 0-.61 1.08l19.52 51.98a.75.75 0 0 1-.69 1.01l-10.53.17q-1.71.02-.13.68l100.35 41.69a6.47 6.43-38.1 0 0 3.46.41l266.47-42.67a.12.12 0 0 0 .09-.16q-.04-.14-.09-.29l-.18.01-13.22.58q-.62.03-.62-.59ZM111.5 48.24v-3.99q0-.5-.5-.5h-4.2a.72.72 0 0 0-.72.77l.23 3.42q.03.48-.43.64l-.95.32q-.43.15-.43.6V53q0 .56.55.49.46-.06.74.66.15.39.16.81l.37 10.08q.02.46.47.46H111a.5.5 0 0 0 .5-.5V54.12q0-.62.63-.62h1.84q.46 0 .49-.47l.15-3.54a.69.68 2 0 0-.68-.72l-1.94-.03q-.49-.01-.49-.5Zm30.74 10.01h10.25q.56 0 .55-.56-.25-9.92-9.65-9.16c-8.48.68-9.7 12.85-2.91 16.51 3.89 2.1 10.48 1.28 12.04-3.72a.58.57-74.8 0 0-.41-.73q-3.36-.8-6 1.14-.42.3-.94.29-2.92-.07-3.51-3.07-.14-.7.58-.7Zm-51.82 66.09a.39.39 0 0 1 .37.26l4.89 13.18a.39.39 0 0 0 .36.25l17.67-.04a.39.39 0 0 0 .36-.53L86.29 63.75a.39.39 0 0 0-.37-.25H66.41a.39.39 0 0 0-.37.25l-28.39 73.72a.39.39 0 0 0 .37.53h17.47a.39.39 0 0 0 .37-.25l5.08-12.96a.39.39 0 0 1 .36-.25l29.12-.2ZM203.84 88.3a.37.37 0 0 1-.38-.38l.19-15.3a.37.37 0 0 0-.37-.37H188.1a.37.37 0 0 0-.37.37l.07 15.31a.37.37 0 0 1-.38.37l-5.29-.17a.37.37 0 0 0-.38.37v11.84a.37.37 0 0 0 .39.37l5.3-.31a.37.37 0 0 1 .39.37l.02 36.9a.37.37 0 0 0 .37.37l14.91-.06a.37.37 0 0 0 .37-.37v-36.79a.37.37 0 0 1 .37-.37l10.01.14a.37.37 0 0 0 .37-.37V88.53a.37.37 0 0 0-.37-.37l-10.04.14Zm73.77 19.1c-4.67-23.02-38.91-28.28-53.51-11.31-9.51 11.06-7.93 28.34 3.39 37.41 8.47 6.8 22.3 8.12 32.52 4.79 13.42-4.37 20.38-17.14 17.6-30.89ZM481.2 96.48l.07-7.71q0-.51-.5-.51l-14.76-.04q-.51 0-.51.52v48.76q0 .5.5.5h14.74a.54.53-90 0 0 .53-.54q-.06-11.87.01-23.78.03-6.38 1.29-9c3.08-6.46 13.43-8.03 17.7-1.92 3.97 5.68 2.24 27.25 2.23 34.73q0 .51.51.51h14.47q.83 0 .82-.83-.15-15.89-.11-30.17c.03-11.65-4.67-18.67-16.68-19.82q-12.12-1.15-19.72 9.49a.33.32 62.8 0 1-.59-.19Zm-42.8 2.73a.47.47 0 0 1-.9-.19V88.87q0-.63-.63-.63l-14.6-.02q-.52 0-.52.52v48.75q0 .48.48.48l14.81.09a.45.45 0 0 0 .45-.45c.02-12.97-4.96-43.25 20.31-35.93q.5.14.5-.38l-.07-13.1q-.01-.61-.61-.64-13.84-.72-19.22 11.65ZM42.84 115.08a.47.47 0 0 0 .62-.26l7.07-18.34a.47.47 0 0 0-.52-.63l-35.36 6.48a.47.47 0 0 0-.09.89l28.28 11.86Zm443.41-11.18c-2.12 3-1.89 4.5-2.05 8.84q-.46 13.15-.02 26.33.02.62.63.53l14.08-2.09a.71.71 0 0 0 .61-.7v-27.72a.85.85 0 0 0-.54-.79l-11.83-4.66a.75.75 0 0 0-.88.26Zm35.38 13.23a.5.5 0 0 0-.68.46l-.28 15.78a.5.5 0 0 0 .58.51l29.06-4.62a.5.5 0 0 0 .1-.96l-28.78-11.17Zm-447.86 10.3a.21.21 0 0 0-.08.41l17.04 7.14a.54.53-88.6 0 0 .71-.68l-2.32-6.27a1.21 1.2 79.2 0 0-1.14-.78l-14.21.18Zm331.77 57.47-.06-21.4a.43.43 0 0 0-.47-.43l-3.63.26q-.63.04-.63.68 0 10.62.01 21.24c0 3.57 3.92 4.16 6.61 3.41a1.61 1.61 0 0 0-.43-3.16h-.79q-.61 0-.61-.6Zm11.25-7.03a.38.38 0 0 1-.68-.23l-.17-14.29a.38.38 0 0 0-.38-.37l-4.19.07a.38.38 0 0 0-.37.38v24.7a.38.38 0 0 0 .38.38l4.53-.03a.38.38 0 0 0 .38-.4l-.36-6.59a.38.38 0 0 1 .68-.25l5.36 7.11a.38.38 0 0 0 .3.15h5.38a.38.38 0 0 0 .29-.62l-6.69-8.15a.38.38 0 0 1 0-.48l6.33-7.63a.38.38 0 0 0-.29-.62h-4.94a.38.38 0 0 0-.3.15l-5.26 6.72Zm-48.39 4.47a.3.3 0 0 1-.57 0l-5.97-18.38a.3.3 0 0 0-.29-.21h-5.12a.3.3 0 0 0-.29.4l8.66 24.15a.3.3 0 0 0 .28.2h5.93a.3.3 0 0 0 .28-.2l8.65-24.16a.3.3 0 0 0-.29-.4l-5.03.02a.3.3 0 0 0-.29.21l-5.95 18.37Zm29.07-2.54a9.45 9.45 0 0 0-9.45-9.45 9.45 9.45 0 0 0-9.45 9.45 9.45 9.45 0 0 0 9.45 9.45 9.45 9.45 0 0 0 9.45-9.45Zm37.93-2.82a1.29 1.29 0 0 1 .1-2.49q2.98-.63 5.88.47a.96.96 0 0 0 1.01-.2q1.25-1.18.81-2.99-.09-.38-.47-.49-4.84-1.37-8.46-.53c-3.7.87-6.01 5.19-3.56 8.53 1.55 2.12 5.63 2.17 7.75 3.4a1.35 1.35 0 0 1-.5 2.5q-3.22.43-6.25-.95a.92.91-56.5 0 0-1.05.22q-1.13 1.23-.89 2.88.07.5.55.67c5.28 1.87 15.55 2.19 13.39-6.71-.67-2.76-6.12-3.65-8.31-4.31Zm53.01 10.63q1.53 1.46 3.79 1.54a2.24 2.23-81.8 0 0 2.24-1.68q.46-1.84-1.36-2.12-.58-.09-.58-.67c-.02-5.78 1.64-13.91-7.26-14.22q-3.09-.1-7.11 1.27-.56.19-.4.76l.81 2.77a.6.59 70.3 0 0 .81.39c2.66-1.11 8.02-2.45 8.26 1.64q.04.57-.53.51c-16.56-1.73-11.76 16.6.39 9.69q.52-.29.94.12Zm20.31.32c.62 5.66-5.71 4.6-8.79 3.29a.87.87 0 0 0-1.17.56l-.68 2.33q-.15.51.33.73c4.48 2.11 11.92 2.5 14.42-2.62 2.02-4.16.95-15.55.9-20.49q-.01-.54-.54-.67-2.26-.55-3.86.87-.35.3-.74.07c-14.93-9.02-18.1 22.4-.46 15.57q.53-.21.59.36Zm14.04-6.68h10.52q.6 0 .74-.59c3.34-14.82-21.6-13.36-16.05 3.15 2.19 6.5 9.74 5.86 14.98 4.22q.5-.15.36-.66l-.69-2.65q-.16-.64-.8-.46c-3.27.93-8.44 1.9-9.45-2.52q-.11-.49.39-.49Zm19.96-9.23q-1.82-1.68-4.32-.9-.35.12-.36.49l-.13 16.33q-.01.53.53.54l4.17.07q.51.01.5-.51-.2-5.39-.07-10.79c.08-3.15 4.71-3.02 6.26-1.59a1.41 1.37-69.3 0 1 .45 1.03V188q0 .5.5.5h3.98q.49 0 .5-.49c.06-3.94.79-11.74-1-14.82-1.89-3.26-7.28-3.56-10.19-1.15q-.42.35-.82-.02Zm-88.37 10.07a.33.33 0 0 1-.63-.01l-2.91-10.83a.33.33 0 0 0-.32-.24l-4.48-.02a.33.33 0 0 0-.32.43l5.15 16.85a.33.33 0 0 0 .31.23h5.07a.33.33 0 0 0 .31-.23l3.57-11.29a.33.33 0 0 1 .63 0l3.56 11.29a.33.33 0 0 0 .31.23h5.09a.33.33 0 0 0 .32-.24l5.06-16.84a.33.33 0 0 0-.31-.42h-4.45a.33.33 0 0 0-.32.25l-2.74 10.87a.33.33 0 0 1-.64.01l-3.41-10.9a.33.33 0 0 0-.31-.23h-4.94a.33.33 0 0 0-.31.23l-3.29 10.86Zm-110.86 45.18c-5.73-3.11 1.36-9.52 5.94-3.67a.57.57 0 0 0 .89.01l3.08-3.73a.65.65 0 0 0-.06-.89q-5.41-4.94-12.66-2.79c-5.99 1.78-7.92 9.62-4.2 14.1q1.09 1.3 4.54 3.24c1.83 1.03 7.27 3.24 6.47 5.96-1.42 4.86-7.02 3.13-9.5.33q-.68-.77-1.34.02l-3.24 3.88q-.38.46.05.87c6.7 6.28 20.62 4.93 20.75-6.3.08-6.75-6.02-8.48-10.72-11.03ZM149.1 239.98c-6.82 3.98-15.7 2.28-16.75-6.12-1.3-10.44 7.99-14.82 16.64-9.77q.65.38.67-.38l.13-5.85q.01-.55-.52-.74c-10.99-3.81-22.09.29-23.77 12.86-1.92 14.39 11.33 21.55 23.71 16.74q.51-.2.51-.74l.04-5.62a.44.44 0 0 0-.66-.38Zm38.18-7.98a16.53 16.53 0 0 0-16.53-16.53A16.53 16.53 0 0 0 154.22 232a16.53 16.53 0 0 0 16.53 16.53A16.53 16.53 0 0 0 187.28 232Zm179.463-15.506a.48.48 0 0 0-.48-.48l-6.06.011a.48.48 0 0 0-.48.481l.054 30.76a.48.48 0 0 0 .48.48l6.06-.011a.48.48 0 0 0 .48-.481l-.054-30.76ZM210.74 236.84c-.32 6.31-8.77 7.54-11.06 2.55-1.89-4.13-.67-17.39-.61-22.74a.39.38 90 0 0-.38-.39l-5.73-.01q-.67-.01-.68.66-.12 10.28.05 20.52c.25 15.08 25.37 15.02 25.29-1.95q-.04-9.34-.18-18.73-.01-.5-.5-.5h-5.43q-.6 0-.58.6.3 10.06-.19 19.99Zm21.48-10.16 14.28 20.3q.3.43.83.45l4.96.22a.68.68 0 0 0 .71-.68V217q0-.75-.75-.75h-4.92q-.67 0-.66.67l.28 20.3a.11.11 0 0 1-.2.07l-14.18-20.51q-.37-.53-1.02-.53h-5.18q-.62 0-.62.63v29.99q0 .62.62.62l5.4.02q.6 0 .59-.6l-.52-20.1q-.02-.69.38-.13Zm31.85-4.18a.44.44 0 0 1 .44.44l-.03 24.2a.44.44 0 0 0 .45.44l5.89-.12a.44.44 0 0 0 .43-.44v-24.36a.44.44 0 0 1 .45-.44l5.6.11a.44.44 0 0 0 .45-.44v-5.2a.44.44 0 0 0-.44-.44h-19.45a.44.44 0 0 0-.44.46l.28 5.37a.44.44 0 0 0 .44.42h5.93Zm25.18 12.73a.23.23 0 0 1 .42-.12l7.46 12.12a.83.82 72.9 0 0 .71.38l6.71-.16q.72-.02.32-.61l-7.95-11.98q-.29-.44.21-.62 6.26-2.15 6.47-8.2c.4-11.47-12.42-10.17-20.72-9.65q-.38.02-.38.4v30.4a.43.43 0 0 0 .44.43l5.48-.14a.85.84-.7 0 0 .83-.84v-11.41Zm30.16-7.31a.17.17 0 0 1-.31 0l-5.75-11.19q-.25-.48-.79-.48h-6.52q-.77 0-.39.67 4.07 7.14 8.53 14.1c2.25 3.53 1.41 10.99 1.27 15.35a1.11 1.11 0 0 0 1.1 1.14l5.49.04a.46.46 0 0 0 .46-.46v-13.3q0-.53.28-.98l9.73-15.61a.62.62 0 0 0-.53-.95h-6.19a.89.87-75.9 0 0-.78.48l-5.6 11.19Zm55.54-11.29.1 30.48a.38.38 0 0 0 .38.38l9.81-.03a15.29 14.93-.2 0 0 15.24-14.98v-1.38a15.29 14.93-.2 0 0-15.34-14.88l-9.81.03a.38.38 0 0 0-.38.38Zm38.3 18.55a.49.49 0 0 1 .5-.49l9.5.09a.49.49 0 0 0 .5-.49v-5.15a.49.49 0 0 0-.5-.49l-9.5.12a.49.49 0 0 1-.5-.49v-5.39a.49.49 0 0 1 .5-.49l9.75.14a.49.49 0 0 0 .5-.49v-5.25a.49.49 0 0 0-.49-.49l-16.52-.09a.49.49 0 0 0-.49.49v30.3a.49.49 0 0 0 .49.49h16.52a.49.49 0 0 0 .49-.49v-5.02a.49.49 0 0 0-.49-.49h-9.77a.49.49 0 0 1-.49-.49v-5.83Z"/><path fill="#11653c" d="M123.35 49.6c2.87-3.11 9.14-.62 9.34 4.15q.23 5.54.35 11.09a.63.63 0 0 1-.63.65l-4.26.01a.61.6 89.1 0 1-.61-.6l-.12-10.35a1.01 1-77.6 0 0-.56-.89q-2.02-1.02-3.95.22-.59.38-.61 1.07L121.96 65q-.02.5-.53.5h-4.07q-.63 0-.63-.63l.03-25.87q0-.5.49-.5h4.41a.64.64 0 0 1 .64.66l-.36 9.86q-.08 2.21 1.41.58Z"/><path fill="#ef5a42" d="m463.28 141.12 13.22-.58.18-.01q.05.15.09.29a.12.12 0 0 1-.09.16l-266.47 42.67a6.47 6.43-38.1 0 1-3.46-.41L106.4 141.55q-1.58-.66.13-.68l10.53-.17a.75.75 0 0 0 .69-1.01L98.23 87.71a.81.81 0 0 1 .61-1.08l85.52-16.05q.61-.11.63.51l.34 13.86a.54.54 0 0 1-.54.55h-5.29q-.75 0-.75.75v16.59a.65.65 0 0 0 .65.65l4.78.01q.73.01.74.74l.34 36.02q0 .49.5.49h19.99q.75 0 .75-.75v-35.92q0-.61.61-.6l8.88.03q.46 0 .36.46c-9.56 42.46 51.12 52.67 63.09 18.88 5.79-16.34-3.83-33.61-20.36-37.95-15.88-4.17-34.07.85-41.42 16.2a.35.35 0 0 1-.66-.15V86q0-.5-.5-.5l-9.33-.01a.64.63 0 0 1-.64-.63l-.09-14.78q0-.6-.6-.6l-13.87.05q-1.32.01-.03-.24 68.18-12.88 137.07-25.76c1.66-.31 2.91-.53 4.59.12q55.43 21.54 110.8 43.26a.44.44 0 0 1 .04.81q-1.68.86-2.9 2.34-1.37 1.68-1.16-.48c.24-2.39.54-4.04-2.57-4.06q-9.03-.07-18.06 0-.71.01-.72.72l-.06 54.03a.49.48 0 0 0 .49.48h20.29q.5 0 .5-.5c-.05-8.72-.27-17.56.37-26.25.83-11.26 11.46-12.73 19.72-8.28q.47.26.51-.28.36-5.34.24-10.69-.03-1.62 1.14-1.04a.72.72 0 0 1 .39.64l.04 46.18q0 .62.62.59ZM304.32 88.01l-.23-34.24q-.01-.65-.66-.69-10.05-.76-20.11.04-.55.05-.55.6l.03 85.97q0 .14-.1.23-.08.09-.19.18a.36.36 0 0 0 .23.63l20.73.03q.48 0 .5-.48l.1-2.29q.04-.96.8-.38c12.71 9.52 29 4.22 37.3-8.02 6.58-9.68 6.17-23.84-.18-33.26-8.52-12.62-23.79-16.13-37.27-8.1q-.4.24-.4-.22Zm86.39.29c-12.45-8.92-31.61-3.55-38.46 9.95-7.62 15-2.84 33.52 12.47 41.28q13.39 6.79 25.98-1.67.8-.54.8.43v1.95q0 .5.5.5l20.24.04q.51 0 .51-.52V86a.5.5 0 0 0-.5-.5h-20.27q-.85 0-.73.84l.22 1.49a.49.48-76.5 0 1-.76.47ZM155.65 116c.15 12.46-16.15 11.36-16.14 1.98q0-15.96-.02-31.97 0-.51-.5-.51h-20.22a.51.51 0 0 0-.51.51q-.04 14.55 0 29.13.03 9.96 1.54 13.91c7.24 18.85 48.36 19.1 55.66-.45q1.3-3.48 1.27-12.33c-.03-9.94.75-20.33-.09-30.2q-.05-.57-.62-.57h-20.01q-.52 0-.52.52-.02 15.02.16 29.98Z"/><path fill="#11653c" d="m111.99 48.74 1.94.03a.69.68 2 0 1 .68.72l-.15 3.54q-.03.47-.49.47h-1.84q-.63 0-.63.62V65a.5.5 0 0 1-.5.5h-4.21q-.45 0-.47-.46l-.37-10.08q-.01-.42-.16-.81-.28-.72-.74-.66-.55.07-.55-.49v-3.5q0-.45.43-.6l.95-.32q.46-.16.43-.64l-.23-3.42a.72.72 0 0 1 .72-.77h4.2q.5 0 .5.5v3.99q0 .49.49.5ZM141.66 58.95q.59 3 3.51 3.07.52.01.94-.29 2.64-1.94 6-1.14a.58.57-74.8 0 1 .41.73c-1.56 5-8.15 5.82-12.04 3.72-6.79-3.66-5.57-15.83 2.91-16.51q9.4-.76 9.65 9.16.01.56-.55.56h-10.25q-.72 0-.58.7Zm.21-5.27a.62.62 0 0 0 .37 1.12l5.06-.1a.62.62 0 0 0 .33-1.13l-2.57-1.68a.62.62 0 0 0-.69.01l-2.5 1.78Z"/><path fill="#fff" d="m141.87 53.68 2.5-1.78a.62.62 0 0 1 .69-.01l2.57 1.68a.62.62 0 0 1-.33 1.13l-5.06.1a.62.62 0 0 1-.37-1.12ZM304.72 88.23c13.48-8.03 28.75-4.52 37.27 8.1 6.35 9.42 6.76 23.58.18 33.26-8.3 12.24-24.59 17.54-37.3 8.02q-.76-.58-.8.38l-.1 2.29q-.02.48-.5.48l-20.73-.03a.36.36 0 0 1-.23-.63q.11-.09.19-.18.1-.09.1-.23l-.03-85.97q0-.55.55-.6 10.06-.8 20.11-.04.65.04.66.69l.23 34.24q0 .46.4.22Zm-2.78 41.88q7.8 12.14 21.81 9.14c27.52-5.88 27.29-48.02-1.19-52.38q-11.82-1.81-20.64 7.81-.39.43-.62-.1-.26-.58.02-1.2.16-.36.16-.76l-.31-36.41q-.01-.46-.46-.46H286q-.5 0-.5.5v81.11a.61.61 0 0 0 .61.61l14.95.15a.43.43 0 0 0 .44-.43v-7.45q0-.82.44-.13Z"/><path fill="#11653c" d="M301.5 130.24v7.45a.43.43 0 0 1-.44.43l-14.95-.15a.61.61 0 0 1-.61-.61V56.25q0-.5.5-.5h14.71q.45 0 .46.46l.31 36.41q0 .4-.16.76-.28.62-.02 1.2.23.53.62.1 8.82-9.62 20.64-7.81c28.48 4.36 28.71 46.5 1.19 52.38q-14.01 3-21.81-9.14-.44-.69-.44.13Zm26.04-17.09a13.32 13.32 0 0 0-13.32-13.32 13.32 13.32 0 0 0-13.32 13.32 13.32 13.32 0 0 0 13.32 13.32 13.32 13.32 0 0 0 13.32-13.32ZM90.42 124.34l-29.12.2a.39.39 0 0 0-.36.25l-5.08 12.96a.39.39 0 0 1-.37.25H38.02a.39.39 0 0 1-.37-.53l28.39-73.72a.39.39 0 0 1 .37-.25h19.51a.39.39 0 0 1 .37.25l27.78 73.71a.39.39 0 0 1-.36.53l-17.67.04a.39.39 0 0 1-.36-.25l-4.89-13.18a.39.39 0 0 0-.37-.26Zm-24.6-12.76a.32.32 0 0 0 .31.42h19.7a.32.32 0 0 0 .31-.42l-9.86-29a.32.32 0 0 0-.6 0l-9.86 29ZM203.84 88.3l10.04-.14a.37.37 0 0 1 .37.37v11.69a.37.37 0 0 1-.37.37l-10.01-.14a.37.37 0 0 0-.37.37v36.79a.37.37 0 0 1-.37.37l-14.91.06a.37.37 0 0 1-.37-.37l-.02-36.9a.37.37 0 0 0-.39-.37l-5.3.31a.37.37 0 0 1-.39-.37V88.5a.37.37 0 0 1 .38-.37l5.29.17a.37.37 0 0 0 .38-.37l-.07-15.31a.37.37 0 0 1 .37-.37h15.18a.37.37 0 0 1 .37.37l-.19 15.3a.37.37 0 0 0 .38.38Z"/><path fill="#fff" d="m65.82 111.58 9.86-29a.32.32 0 0 1 .6 0l9.86 29a.32.32 0 0 1-.31.42h-19.7a.32.32 0 0 1-.31-.42Zm3.87-3a.5.5 0 0 0 .47.66l11.65.02a.5.5 0 0 0 .48-.66l-5.8-17a.5.5 0 0 0-.94 0l-5.86 16.98ZM352.25 98.25c6.85-13.5 26.01-18.87 38.46-9.95a.49.48-76.5 0 0 .76-.47l-.22-1.49q-.12-.84.73-.84h20.27a.5.5 0 0 1 .5.5v54.26q0 .52-.51.52l-20.24-.04q-.5 0-.5-.5v-1.95q0-.97-.8-.43-12.59 8.46-25.98 1.67c-15.31-7.76-20.09-26.28-12.47-41.28Zm42.13-3.96a.46.46 0 0 1-.82.31c-10.15-12.32-27.95-9.71-36.87 2.29-8.76 11.77-6.07 29.95 5.54 38.04 10.52 7.33 23.72 6.79 31.4-4.46a.48.48 0 0 1 .87.28l-.18 6.04a1.17 1.17 0 0 0 1.17 1.21l13.99.02q.51.01.51-.5l.18-48.35q0-.94-.94-.94l-14.39.03q-.66 0-.64.66l.18 5.37ZM139.51 117.98c-.01 9.38 16.29 10.48 16.14-1.98q-.18-14.96-.16-29.98 0-.52.52-.52h20.01q.57 0 .62.57c.84 9.87.06 20.26.09 30.2q.03 8.85-1.27 12.33c-7.3 19.55-48.42 19.3-55.66.45q-1.51-3.95-1.54-13.91-.04-14.58 0-29.13a.51.51 0 0 1 .51-.51h20.22q.5 0 .5.51.02 16.01.02 31.97Zm10.41 9.56c-7.48 1.31-13.13-2.89-13.12-10.8q.01-14.06-.09-28.1 0-.44-.43-.44l-14.84.07a.63.63 0 0 0-.63.62q-.22 14.06.04 28.15.15 8.08 1.79 11.71c6.51 14.35 35.48 14.65 45.73 5.63 7.15-6.29 5.87-15.83 5.76-24.59-.08-5.68.39-14.01-.15-21.07q-.03-.47-.5-.47h-14.47q-.51 0-.51.51.01 11.68-.02 23.33c-.02 7.33-.58 14.05-8.56 15.45Z"/><path fill="#11653c" d="M224.1 96.09c14.6-16.97 48.84-11.71 53.51 11.31 2.78 13.75-4.18 26.52-17.6 30.89-10.22 3.33-24.05 2.01-32.52-4.79-11.32-9.07-12.9-26.35-3.39-37.41Zm37.7 17.08a13.62 13.62 0 0 0-13.62-13.62 13.62 13.62 0 0 0-13.62 13.62 13.62 13.62 0 0 0 13.62 13.62 13.62 13.62 0 0 0 13.62-13.62ZM394.38 94.29l-.18-5.37q-.02-.66.64-.66l14.39-.03q.94 0 .94.94l-.18 48.35q0 .51-.51.5l-13.99-.02a1.17 1.17 0 0 1-1.17-1.21l.18-6.04a.48.48 0 0 0-.87-.28c-7.68 11.25-20.88 11.79-31.4 4.46-11.61-8.09-14.3-26.27-5.54-38.04 8.92-12 26.72-14.61 36.87-2.29a.46.46 0 0 0 .82-.31Zm.4 18.86a13.29 13.29 0 0 0-13.29-13.29 13.29 13.29 0 0 0-13.29 13.29 13.29 13.29 0 0 0 13.29 13.29 13.29 13.29 0 0 0 13.29-13.29ZM481.2 96.48a.33.32 62.8 0 0 .59.19q7.6-10.64 19.72-9.49c12.01 1.15 16.71 8.17 16.68 19.82q-.04 14.28.11 30.17.01.83-.82.83h-14.47q-.51 0-.51-.51c.01-7.48 1.74-29.05-2.23-34.73-4.27-6.11-14.62-4.54-17.7 1.92q-1.26 2.62-1.29 9-.07 11.91-.01 23.78a.54.53 90 0 1-.53.54H466q-.5 0-.5-.5V88.74q0-.52.51-.52l14.76.04q.5 0 .5.51l-.07 7.71ZM438.4 99.21q5.38-12.37 19.22-11.65.6.03.61.64l.07 13.1q0 .52-.5.38c-25.27-7.32-20.29 22.96-20.31 35.93a.45.45 0 0 1-.45.45l-14.81-.09q-.48 0-.48-.48V88.74q0-.52.52-.52l14.6.02q.63 0 .63.63v10.15a.47.47 0 0 0 .9.19ZM149.92 127.54c7.98-1.4 8.54-8.12 8.56-15.45q.03-11.65.02-23.33 0-.51.51-.51h14.47q.47 0 .5.47c.54 7.06.07 15.39.15 21.07.11 8.76 1.39 18.3-5.76 24.59-10.25 9.02-39.22 8.72-45.73-5.63q-1.64-3.63-1.79-11.71-.26-14.09-.04-28.15a.63.63 0 0 1 .63-.62l14.84-.07q.43 0 .43.44.1 14.04.09 28.1c-.01 7.91 5.64 12.11 13.12 10.8Z"/><path fill="#ef5a42" d="m69.69 108.58 5.86-16.98a.5.5 0 0 1 .94 0l5.8 17a.5.5 0 0 1-.48.66l-11.65-.02a.5.5 0 0 1-.47-.66ZM42.84 115.08l-28.28-11.86a.47.47 0 0 1 .09-.89l35.36-6.48a.47.47 0 0 1 .52.63l-7.07 18.34a.47.47 0 0 1-.62.26Z"/><path fill="#fff" d="M261.8 113.17a13.62 13.62 0 0 1-13.62 13.62 13.62 13.62 0 0 1-13.62-13.62 13.62 13.62 0 0 1 13.62-13.62 13.62 13.62 0 0 1 13.62 13.62Zm-2.76-.02a10.88 10.88 0 0 0-10.88-10.88 10.88 10.88 0 0 0-10.88 10.88 10.88 10.88 0 0 0 10.88 10.88 10.88 10.88 0 0 0 10.88-10.88ZM327.54 113.15a13.32 13.32 0 0 1-13.32 13.32 13.32 13.32 0 0 1-13.32-13.32 13.32 13.32 0 0 1 13.32-13.32 13.32 13.32 0 0 1 13.32 13.32Zm-2.73-.01a10.61 10.61 0 0 0-10.61-10.61 10.61 10.61 0 0 0-10.61 10.61 10.61 10.61 0 0 0 10.61 10.61 10.61 10.61 0 0 0 10.61-10.61ZM394.78 113.15a13.29 13.29 0 0 1-13.29 13.29 13.29 13.29 0 0 1-13.29-13.29 13.29 13.29 0 0 1 13.29-13.29 13.29 13.29 0 0 1 13.29 13.29Zm-2.79.02a10.54 10.54 0 0 0-10.54-10.54 10.54 10.54 0 0 0-10.54 10.54 10.54 10.54 0 0 0 10.54 10.54 10.54 10.54 0 0 0 10.54-10.54Z"/><circle cx="248.16" cy="113.15" r="10.88" fill="#ef5a42"/><circle cx="314.2" cy="113.14" r="10.61" fill="#ef5a42"/><circle cx="381.45" cy="113.17" r="10.54" fill="#ef5a42"/><path fill="#ef5a42" d="M486.25 103.9a.75.75 0 0 1 .88-.26l11.83 4.66a.85.85 0 0 1 .54.79v27.72a.71.71 0 0 1-.61.7l-14.08 2.09q-.61.09-.63-.53-.44-13.18.02-26.33c.16-4.34-.07-5.84 2.05-8.84ZM521.63 117.13l28.78 11.17a.5.5 0 0 1-.1.96l-29.06 4.62a.5.5 0 0 1-.58-.51l.28-15.78a.5.5 0 0 1 .68-.46ZM73.77 127.43l14.21-.18a1.21 1.2 79.2 0 1 1.14.78l2.32 6.27a.54.53-88.6 0 1-.71.68l-17.04-7.14a.21.21 0 0 1 .08-.41Z"/><path fill="#11653c" d="M406.15 185.5h.79a1.61 1.61 0 0 1 .43 3.16c-2.69.75-6.61.16-6.61-3.41q-.01-10.62-.01-21.24 0-.64.63-.68l3.63-.26a.43.43 0 0 1 .47.43l.06 21.4q0 .6.61.6ZM416.79 177.87l5.26-6.72a.38.38 0 0 1 .3-.15h4.94a.38.38 0 0 1 .29.62l-6.33 7.63a.38.38 0 0 0 0 .48l6.69 8.15a.38.38 0 0 1-.29.62h-5.38a.38.38 0 0 1-.3-.15l-5.36-7.11a.38.38 0 0 0-.68.25l.36 6.59a.38.38 0 0 1-.38.4l-4.53.03a.38.38 0 0 1-.38-.38v-24.7a.38.38 0 0 1 .37-.38l4.19-.07a.38.38 0 0 1 .38.37l.17 14.29a.38.38 0 0 0 .68.23ZM368.4 182.34l5.95-18.37a.3.3 0 0 1 .29-.21l5.03-.02a.3.3 0 0 1 .29.4l-8.65 24.16a.3.3 0 0 1-.28.2h-5.93a.3.3 0 0 1-.28-.2l-8.66-24.15a.3.3 0 0 1 .29-.4h5.12a.3.3 0 0 1 .29.21l5.97 18.38a.3.3 0 0 0 .57 0ZM397.47 179.8a9.45 9.45 0 0 1-9.45 9.45 9.45 9.45 0 0 1-9.45-9.45 9.45 9.45 0 0 1 9.45-9.45 9.45 9.45 0 0 1 9.45 9.45Zm-9.398 5.13a5.15 4.25 89.2 0 0 4.178-5.21 5.15 4.25 89.2 0 0-4.322-5.09 5.15 4.25 89.2 0 0-4.178 5.21 5.15 4.25 89.2 0 0 4.322 5.09ZM435.4 176.98c2.19.66 7.64 1.55 8.31 4.31 2.16 8.9-8.11 8.58-13.39 6.71q-.48-.17-.55-.67-.24-1.65.89-2.88a.92.91-56.5 0 1 1.05-.22q3.03 1.38 6.25.95a1.35 1.35 0 0 0 .5-2.5c-2.12-1.23-6.2-1.28-7.75-3.4-2.45-3.34-.14-7.66 3.56-8.53q3.62-.84 8.46.53.38.11.47.49.44 1.81-.81 2.99a.96.96 0 0 1-1.01.2q-2.9-1.1-5.88-.47a1.29 1.29 0 0 0-.1 2.49ZM487.47 187.49c-12.15 6.91-16.95-11.42-.39-9.69q.57.06.53-.51c-.24-4.09-5.6-2.75-8.26-1.64a.6.59 70.3 0 1-.81-.39l-.81-2.77q-.16-.57.4-.76 4.02-1.37 7.11-1.27c8.9.31 7.24 8.44 7.26 14.22q0 .58.58.67 1.82.28 1.36 2.12a2.24 2.23-81.8 0 1-2.24 1.68q-2.26-.08-3.79-1.54-.42-.41-.94-.12Zm.03-5.316a1.32 1.32 0 0 0-1.479-1.14l-3.391.441a1.32 1.32 0 0 0-1.14 1.48l.13.991a1.32 1.32 0 0 0 1.479 1.14l3.391-.441a1.32 1.32 0 0 0 1.14-1.48l-.13-.991Z"/><path fill="#11653c" d="M508.13 187.57c-17.64 6.83-14.47-24.59.46-15.57q.39.23.74-.07 1.6-1.42 3.86-.87.53.13.54.67c.05 4.94 1.12 16.33-.9 20.49-2.5 5.12-9.94 4.73-14.42 2.62q-.48-.22-.33-.73l.68-2.33a.87.87 0 0 1 1.17-.56c3.08 1.31 9.41 2.37 8.79-3.29q-.06-.57-.59-.36Zm.59-4.77.06-6.44a1.77 1.77 0 0 0-1.75-1.79l-1.54-.02a4.48 4.17-89.4 0 0-4.21 4.44l-.02 1.02a4.48 4.17-89.4 0 0 4.13 4.52l1.54.02a1.77 1.77 0 0 0 1.79-1.75ZM522.37 181.74c1.01 4.42 6.18 3.45 9.45 2.52q.64-.18.8.46l.69 2.65q.14.51-.36.66c-5.24 1.64-12.79 2.28-14.98-4.22-5.55-16.51 19.39-17.97 16.05-3.15q-.14.59-.74.59h-10.52q-.5 0-.39.49Zm.46-3.46 6.24-.02a.5.5 0 0 0 .5-.5l-.01-.17a3.35 3.23 89.8 0 0-3.24-3.34h-.78a3.35 3.23 89.8 0 0-3.22 3.36l.01.17a.5.5 0 0 0 .5.5ZM543.54 172.04c2.91-2.41 8.3-2.11 10.19 1.15 1.79 3.08 1.06 10.88 1 14.82q-.01.49-.5.49h-3.98q-.5 0-.5-.5v-11.31a1.41 1.37-69.3 0 0-.45-1.03c-1.55-1.43-6.18-1.56-6.26 1.59q-.13 5.4.07 10.79.01.52-.5.51l-4.17-.07q-.54-.01-.53-.54l.13-16.33q.01-.37.36-.49 2.5-.78 4.32.9.4.37.82.02ZM454.35 182.09l3.29-10.86a.33.33 0 0 1 .31-.23h4.94a.33.33 0 0 1 .31.23l3.41 10.9a.33.33 0 0 0 .64-.01l2.74-10.87a.33.33 0 0 1 .32-.25h4.45a.33.33 0 0 1 .31.42l-5.06 16.84a.33.33 0 0 1-.32.24h-5.09a.33.33 0 0 1-.31-.23l-3.56-11.29a.33.33 0 0 0-.63 0l-3.57 11.29a.33.33 0 0 1-.31.23h-5.07a.33.33 0 0 1-.31-.23l-5.15-16.85a.33.33 0 0 1 .32-.43l4.48.02a.33.33 0 0 1 .32.24l2.91 10.83a.33.33 0 0 0 .63.01Z"/><path fill="#fff" d="M522.83 178.28a.5.5 0 0 1-.5-.5l-.01-.17a3.35 3.23 89.8 0 1 3.22-3.36h.78a3.35 3.23 89.8 0 1 3.24 3.34l.01.17a.5.5 0 0 1-.5.5l-6.24.02ZM508.72 182.8a1.77 1.77 0 0 1-1.79 1.75l-1.54-.02a4.48 4.17-89.4 0 1-4.13-4.52l.02-1.02a4.48 4.17-89.4 0 1 4.21-4.44l1.54.02a1.77 1.77 0 0 1 1.75 1.79l-.06 6.44Z"/><ellipse fill="#fff" rx="5.15" ry="4.25" transform="rotate(89.2 102.846 286.618)"/><rect width="6.06" height="3.64" x="-3.03" y="-1.82" fill="#fff" rx="1.32" transform="rotate(-7.4 1657.683 -3655.043)"/><path fill="#11653c" d="M349.43 223.6c-4.58-5.85-11.67.56-5.94 3.67 4.7 2.55 10.8 4.28 10.72 11.03-.13 11.23-14.05 12.58-20.75 6.3q-.43-.41-.05-.87l3.24-3.88q.66-.79 1.34-.02c2.48 2.8 8.08 4.53 9.5-.33.8-2.72-4.64-4.93-6.47-5.96q-3.45-1.94-4.54-3.24c-3.72-4.48-1.79-12.32 4.2-14.1q7.25-2.15 12.66 2.79a.65.65 0 0 1 .06.89l-3.08 3.73a.57.57 0 0 1-.89-.01ZM132.35 233.86c1.05 8.4 9.93 10.1 16.75 6.12a.44.44 0 0 1 .66.38l-.04 5.62q0 .54-.51.74c-12.38 4.81-25.63-2.35-23.71-16.74 1.68-12.57 12.78-16.67 23.77-12.86q.53.19.52.74l-.13 5.85q-.02.76-.67.38c-8.65-5.05-17.94-.67-16.64 9.77ZM187.28 232a16.53 16.53 0 0 1-16.53 16.53A16.53 16.53 0 0 1 154.22 232a16.53 16.53 0 0 1 16.53-16.53A16.53 16.53 0 0 1 187.28 232Zm-6.67-.06a9.83 9.83 0 0 0-9.83-9.83 9.83 9.83 0 0 0-9.83 9.83 9.83 9.83 0 0 0 9.83 9.83 9.83 9.83 0 0 0 9.83-9.83Z"/><rect width="7.02" height="31.72" x="-3.51" y="-15.86" fill="#11653c" rx=".48" transform="rotate(-.1 133039.05 -208016.656)"/><path fill="#11653c" d="M199.68 239.39c2.29 4.99 10.74 3.76 11.06-2.55q.49-9.93.19-19.99-.02-.6.58-.6h5.43q.49 0 .5.5.14 9.39.18 18.73c.08 16.97-25.04 17.03-25.29 1.95q-.17-10.24-.05-20.52.01-.67.68-.66l5.73.01a.39.38 90 0 1 .38.39c-.06 5.35-1.28 18.61.61 22.74ZM231.84 226.81l.52 20.1q.01.6-.59.6l-5.4-.02q-.62 0-.62-.62v-29.99q0-.63.62-.63h5.18q.65 0 1.02.53l14.18 20.51a.11.11 0 0 0 .2-.07l-.28-20.3q-.01-.67.66-.67h4.92q.75 0 .75.75v29.97a.68.68 0 0 1-.71.68l-4.96-.22q-.53-.02-.83-.45l-14.28-20.3q-.4-.56-.38.13ZM264.07 222.5h-5.93a.44.44 0 0 1-.44-.42l-.28-5.37a.44.44 0 0 1 .44-.46h19.45a.44.44 0 0 1 .44.44v5.2a.44.44 0 0 1-.45.44l-5.6-.11a.44.44 0 0 0-.45.44v24.36a.44.44 0 0 1-.43.44l-5.89.12a.44.44 0 0 1-.45-.44l.03-24.2a.44.44 0 0 0-.44-.44ZM289.25 235.23v11.41a.85.84-.7 0 1-.83.84l-5.48.14a.43.43 0 0 1-.44-.43v-30.4q0-.38.38-.4c8.3-.52 21.12-1.82 20.72 9.65q-.21 6.05-6.47 8.2-.5.18-.21.62l7.95 11.98q.4.59-.32.61l-6.71.16a.83.82 72.9 0 1-.71-.38l-7.46-12.12a.23.23 0 0 0-.42.12Zm-.02-13.06v7.22a.57.57 0 0 0 .57.57h1.91a5.04 3.74 0 0 0 5.04-3.74v-.88a5.04 3.74 0 0 0-5.04-3.74h-1.91a.57.57 0 0 0-.57.57ZM319.41 227.92l5.6-11.19a.89.87-75.9 0 1 .78-.48h6.19a.62.62 0 0 1 .53.95l-9.73 15.61q-.28.45-.28.98v13.3a.46.46 0 0 1-.46.46l-5.49-.04a1.11 1.11 0 0 1-1.1-1.14c.14-4.36.98-11.82-1.27-15.35q-4.46-6.96-8.53-14.1-.38-.67.39-.67h6.52q.54 0 .79.48l5.75 11.19a.17.17 0 0 0 .31 0ZM374.95 216.63a.38.38 0 0 1 .38-.38l9.81-.03a15.29 14.93-.2 0 1 15.34 14.88v1.38a15.29 14.93-.2 0 1-15.24 14.98l-9.81.03a.38.38 0 0 1-.38-.38l-.1-30.48Zm6.52 6.14.1 18.36a1.05 1.05 0 0 0 1.05 1.05l1.44-.01a9.27 9.14-.3 0 0 9.23-9.19l-.02-2.18a9.27 9.14-.3 0 0-9.31-9.09l-1.44.01a1.05 1.05 0 0 0-1.05 1.05ZM413.25 235.18v5.83a.49.49 0 0 0 .49.49h9.77a.49.49 0 0 1 .49.49v5.02a.49.49 0 0 1-.49.49h-16.52a.49.49 0 0 1-.49-.49v-30.3a.49.49 0 0 1 .49-.49l16.52.09a.49.49 0 0 1 .49.49v5.25a.49.49 0 0 1-.5.49l-9.75-.14a.49.49 0 0 0-.5.49v5.39a.49.49 0 0 0 .5.49l9.5-.12a.49.49 0 0 1 .5.49v5.15a.49.49 0 0 1-.5.49l-9.5-.09a.49.49 0 0 0-.5.49Z"/><path fill="#fff" d="M289.23 222.17a.57.57 0 0 1 .57-.57h1.91a5.04 3.74 0 0 1 5.04 3.74v.88a5.04 3.74 0 0 1-5.04 3.74h-1.91a.57.57 0 0 1-.57-.57v-7.22ZM381.47 222.77a1.05 1.05 0 0 1 1.05-1.05l1.44-.01a9.27 9.14-.3 0 1 9.31 9.09l.02 2.18a9.27 9.14-.3 0 1-9.23 9.19l-1.44.01a1.05 1.05 0 0 1-1.05-1.05l-.1-18.36Z"/><circle cx="170.78" cy="231.94" r="9.83" fill="#fff"/></svg>