<?xml version="1.0" encoding="utf-8"?>
<!-- Generator: Adobe Illustrator 19.0.0, SVG Export Plug-In . SVG Version: 6.00 Build 0)  -->
<svg version="1.1" id="Layer_1" xmlns="http://www.w3.org/2000/svg" xmlns:xlink="http://www.w3.org/1999/xlink" x="0px" y="0px"
	 viewBox="0 0 500 500" style="enable-background:new 0 0 500 500;" xml:space="preserve">
<style type="text/css">
	.st0{fill:#FAEF36;}
	.st1{fill:#292929;}
	.st2{fill:#FFFFFF;}
	.st3{fill:#ED3552;}
</style>
<g id="XMLID_1_">
	<path id="XMLID_36_" class="st0" d="M264.2,347.4c4.3-16.1,2.5-28-2.7-28c-0.5,0-1.1,0.1-1.6,0.3c-3.8,5.7-7.2,13.5-9.4,21.6
		c-0.7,2.7-2.4,10.5-2.4,17.7c0,5.9,1.1,10.9,4.5,12.6c0.4-0.5,0.9-1,1.3-1.6C257.7,365,261.6,356.9,264.2,347.4"/>
	<path id="XMLID_37_" class="st0" d="M286.5,263.9c4.4-16.1,2.6-28.1-2.6-28.1c-0.5,0-1,0.1-1.6,0.3c-3.8,5.7-7.3,13.6-9.4,21.7
		c-0.7,2.7-2.4,10.5-2.4,17.7c0,5.9,1.1,10.9,4.5,12.6c0.4-0.5,0.9-1,1.3-1.6C280.1,281.6,284,273.4,286.5,263.9"/>
	<path id="XMLID_40_" class="st0" d="M348.6,368.6c0.3,0.4,0.4,0.8,0.4,1.2v0.6c0,0.2,0,0.4,0,0.6c0,0.2,0,0.4,0.1,0.4l0,0.1h-1.3
		l0-0.1l0-0.1l0-0.3v-0.6c0-0.9-0.2-1.5-0.7-1.8c-0.3-0.2-0.8-0.3-1.6-0.3h-1.1v3.1H343v-7.9h2.8c1,0,1.7,0.1,2.2,0.3
		c0.8,0.3,1.2,1,1.2,2c0,0.7-0.3,1.2-0.8,1.6c-0.3,0.2-0.7,0.3-1.1,0.4C347.9,367.9,348.3,368.2,348.6,368.6 M345.9,361.4
		c-1.7,0-3.2,0.6-4.4,1.8c-1.2,1.2-1.8,2.7-1.8,4.4c0,1.7,0.6,3.2,1.8,4.4c1.2,1.2,2.7,1.8,4.4,1.8c1.7,0,3.2-0.6,4.4-1.8
		c1.2-1.2,1.8-2.7,1.8-4.4c0-1.7-0.6-3.2-1.8-4.4C349.1,362,347.6,361.4,345.9,361.4"/>
	<path id="XMLID_47_" class="st0" d="M356.7,160.1c-0.1-0.5-0.2-1-0.4-1.5c-0.1-0.2-0.1-0.4-0.2-0.6c-8.6-26.7-59.5-34.4-114-16.9
		c-6.7,2.1-13.2,4.6-19.3,7.2c1.6-2.8,3.9-5.8,5-8.7c0.7-2.1,1.9-3.7,2.3-7.3c58-18.2,115.6-9.4,125.2,20.6
		C356.2,155.3,356.6,157.6,356.7,160.1 M357.9,175.7c-0.5,1-3.1,3.2-6.4,5.9c-3.6,3-6.6,5.1-8.7,6.3c-0.5,0.3-1,0.6-1.6,0.9
		c-1,0.7-1.9,1.3-2.7,1.8c-4.7,2.8-8.9,4.6-11.8,4.6c-1.7-0.1-3.4-0.9-5-2c-1.1-0.7-2.1-1.5-2.8-2.4c-1.2-1.8-2.2-3.1-1.2-5.5
		c0.4-1.3,5.5-6.6,6.1-7.4c2.1-2.4,4.5-4.5,6.9-6.7l-0.2-0.2l-0.9-0.8c-0.7,0.6-1.2,1.1-1.6,1.4c-5.8,5.7-11.6,11.5-17.5,17.1
		l-1.9,1.9h-0.5c-0.3,0-0.6-0.1-0.9-0.2c-0.3,0.3-0.6,0.6-0.9,0.8l-2.1,2.1h-0.8c-1.6,0-3.6-1.6-4.7-2.5c-0.4-0.3-0.7-0.6-1.1-1
		c-0.9,0.3-1.8,0.7-2.7,1c-6.1,2.2-11.2,3.3-14.7,3.3c-1.1-0.1-2.1-0.1-3.1-0.5c-1.2-0.4-7.5-5.3-6.7-10.4c0.1-1.3,0.7-2.8,1.3-4.2
		c-1.4,1.5-3,2.9-4.5,4.1c-2.3,1.7-4.5,3.2-6.8,4.5c-2.1,1.5-4.3,2.7-6.5,3.8c-3.7,1.7-7.3,2.7-10.5,2.8c-0.5,0-3-0.2-4.6-1.3
		c-0.2-0.1-0.4-0.3-0.6-0.4c-8.6,11.9-16.6,24.3-25.3,36.2c-1,1.5-5.1,7.2-7.4,7.2l-0.4,0c-1.4,1.5-3,2.8-4.3,2.8
		c-2.3-0.1-8.2-2.9-8.2-5.6V233l0-0.1c0.3-2.1,18.1-26.6,31.5-44.6c12.1-16.4,20.7-26.6,25.5-30c1.2-0.8,2.7-1.1,4.1-1l0.4,0
		l0.6-0.4c1-0.7,2.3-1,3.6-0.9c1.8,0,4.6,0.3,5.5,2.2c1.8-0.7,3.4-1.1,4.8-1c1.5,0.1,5.3,1,7.7,3.4c2.2,2.1,3.1,5.4,2.8,6.9
		c-0.2,0.6-0.4,1.3-0.7,2c0.8-0.8,1.6-1.6,2.5-2.4c2.9-2.5,5.8-4.5,8.8-6.1c1.9-1,5.3-2.4,8.5-2.9c3.7-1.4,8.5-2.5,10.7-0.4
		c2,1.8,3.4,4,3.5,6.5c0.4,4.3-0.6,5.9-4.3,8.7c-0.7,0.5-1.8,1.1-3,1.6c-0.4,0.3-0.8,0.6-1.2,1c-2.4,1.8-8.4,3.8-11.4,3.7
		c-1.4,0-3.3-0.1-5.2-0.3c-0.5,1.2-0.8,2.3-0.9,3l0.2,0.1l0.5,0.2c1.8,0,5-0.6,8.4-1.4c4.9-1.5,9.1-3,10.8-4.6
		c0,0,13.1-11.2,16.8-14.5c0.2-2.1,1-4.1,2.4-5.8c1.5-1.9,3.3-2,4.9-1.2l0.3-0.4c3-3.9,9.4,2.2,8.9,5.7c0.6,0.6,1.2,1,1.6,1.4
		c2.8,2.2,5.4,4.7,5.4,7.3c-0.1,2.2-2.1,4.4-4.3,6.4c-1.7,1.5-3.4,3-5.2,4.6l-0.3,0.3c0.6-0.4,1.2-0.8,1.6-1
		c0.9-0.4,2.8-1.7,5.7-3.5c1.2-0.9,3.9-2.8,5.5-2.8c0.4,0,0.8,0.1,1.2,0.2c1.2-0.8,2.6-1.5,3.4-1.5c1.1,0.1,1.9,0.4,2.7,1
		C357.5,172.7,358.6,174.1,357.9,175.7 M354.8,255.7c-4.1,15.6-15.2,26.8-27.7,36c14.7,12.1,22,27,16.8,46.5
		c-3.3,12.5-11.5,24.2-22.9,33.9c-11.3,12.2-27.1,22.1-44.8,28.2c-7.2,2.5-14.7,4.2-22.4,5.2c-5.2,0.7-10.5,1.1-15.7,1.1
		c-45.3-0.1-75-28.2-65.6-62.9c5-18.6,20.2-35.3,40.3-46.6c-7.8-9.7-10.8-22.2-7.1-35.7c1-3.6,2.4-7.1,4.1-10.5
		c-33.6,0.2-59.5-10.6-65.8-30.4c-1.9-6-1.9-12.4-0.2-18.9c0.2,0.2,0.3,0.3,0.5,0.5c1.9,1.6,4.1,2.8,6.4,3.4l0,0
		c2.6,0.7,5.4,0.7,7.9,0c-1.4,5.5-1.4,10.8,0.1,15.8c5.1,16,25.6,25.1,52.9,26.2c8.7-14.4,24-26.4,42.1-33.7l0.3-0.1
		c1.1-0.5,2.3-1,3.5-1.5c4.1-1.7,8.3-3.1,12.5-4.2c4.9-1.6,10-2.9,15.2-3.7c5-0.8,10.2-1.2,15.3-1.2
		C339,203,362.4,227.1,354.8,255.7 M351.1,372.7c-1.4,1.4-3.1,2.1-5.1,2.1c-2,0-3.7-0.7-5.1-2.1c-1.4-1.4-2.1-3.1-2.1-5.1
		c0-2,0.7-3.7,2.1-5.1c1.4-1.4,3.1-2.1,5.1-2.1c2,0,3.7,0.7,5.1,2.1c1.4,1.4,2.1,3.1,2.1,5.1C353.2,369.6,352.5,371.3,351.1,372.7
		 M149.9,169.3c1.4-1.5,2.9-2.8,4.3-3.6c1.2-0.7,3-1.2,4.8-1.3l0.2-0.1c2.9-1.6,10-2.4,10,2.8v0.3c0,0-0.3,0.6-0.5,1l-0.3,0.5l0-0.2
		l-0.2,0.7c-1.8,2.3-3.5,4.9-5.2,7.3c-3.9,5.5-5.2,8.9-5.2,10.4c0,0.2,0,0.3,0,0.4c0.1,0.1,0.7,0.4,2.2,0.4c0.6,0,1.3,0,2-0.1
		c1.8-0.7,3.6-1.7,5.7-3.1c4.1-2.7,7.4-5.7,9.7-8.9c1.9-2.4,2.1-3.5,2.1-3.6c0-1.8-1.2-4.6-5.8-8.4c-5.2-4.2-8.8-9-8.7-14.4
		c0.1-8.2,5-15.1,13.1-20.7c8.1-5.6,15.7-9.3,22.8-10.7c4-1.4,7.9-2.1,11.6-2c7.8,0.1,13.4,3.5,13.3,11.3
		c-0.1,6.3-3.7,13.4-9.8,21.4c-1,1.3-2.1,2.5-3.2,3.8c-0.7,0.6-2,1.2-3.3,1.7c-0.3,0.3-0.5,0.6-0.8,0.9c-3,2.5-12.7,4.7-12.7-2
		c0-1.5,0.7-2.6,1.3-3.2c2.5-2.7,4.9-6.1,7.3-10.2c2.9-4.9,3.8-8,3.9-9.8c0-0.2-0.1-0.3-0.1-0.3c0,0-0.4-0.2-1.8-0.2
		c-2.9,0-6.9,1.2-12.3,4.3c-0.9,0.6-1.9,1.3-2.9,2c-7.1,5.1-9.6,9.3-9.6,12.5c0,1.4,0.5,2.5,1.8,3.5c8.7,6.9,16.8,13,12.8,22.6
		c2.1-3.1,4.7-5.9,7.7-8.5c2.5-2.2,5.1-4.3,7.8-6.3c0.6-0.1,1.3-0.3,1.9-0.3c0.5,0,0.9,0.1,1.4,0.1c0.5-0.4,1.1-0.8,1.6-1.2
		c0.5-0.1,1-0.2,1.6-0.2c1.4,0,2.8,0.4,4.2,1.2c1.1,0.5,3.1,1.6,3.1,3.7c0,1.3-0.9,2.2-1.5,2.6c-2.7,1.7-5.9,4.7-9.5,9.3
		c-2.2,2.8-3.7,5.1-4.5,6.9c1.5-1.2,3.3-2.8,5.5-4.8c4.8-4.6,9.1-9.7,12.9-15.3c1-1.5,2.7-2,4-1.9c0.4,0,0.8,0,1.3,0.1
		c0.8-1.1,2.2-1.5,3.3-1.4c2.4,0,5.5,1.1,5.1,4.6c-0.2,1.5-2.4,4.7-5.3,8.5c-3.2,4.2-6,7.4-8.3,9.7c-3.2,3.3-6.7,5.9-10.4,7.9
		c-1.8,1.3-3.7,2.4-5.6,3.3c-2.9,1.5-5.5,2.5-7.4,2.5c-1.2-0.1-6.4-0.6-9.4-3.4c-2-1.9-4.1-5.7-3.8-7.6c0.2-1.4,0.8-3,1.6-4.7
		c-0.7,0.9-1.4,1.8-2.3,2.8c-3.7,4.1-8.1,7.5-13.1,10.3c-1.6,1.1-3.3,2.2-5.1,3.1c-6.3,3.3-12.6,5.1-19,5
		c-7.5-0.1-13.2-3.6-13.1-11.6C140.9,181.9,144.2,175.4,149.9,169.3 M250.1,73.3c-31.7,0-61.1,15.4-76.6,43.5h-36.9v267h37.2
		c15.5,27.8,44.8,43,76.3,43c31.5,0,60.7-15.2,76.3-43h37.1v-267h-36.8C311.1,88.7,281.8,73.3,250.1,73.3"/>
	<path id="XMLID_48_" class="st0" d="M347.3,364.9c-0.4-0.2-0.9-0.3-1.7-0.3h-1.2v2.9h1.3c0.6,0,1-0.1,1.3-0.2
		c0.5-0.2,0.8-0.6,0.8-1.2C347.8,365.4,347.6,365.1,347.3,364.9"/>
	<path id="XMLID_51_" class="st1" d="M363.9,384.2h-37.3c-15.7,27.8-44.9,43-76.6,43c-31.6,0-60.9-15.2-76.6-43h-37.3V116.3h37
		c15.6-28.2,45.1-43.5,76.9-43.5c31.7,0,61.2,15.3,76.8,43.5h37V384.2z M329.8,111.6c-15.7-26.9-46.1-43.5-79.7-43.5
		c-33.6,0-64.1,16.6-79.5,43.3l-39.4,0.2l0.3,277.5l39.1-0.3c15.9,26.6,46.2,43,79.5,43c33.3,0,63.6-16.4,79.2-42.8l39.7-0.2
		l-0.3-277.5L329.8,111.6z"/>
	<path id="XMLID_54_" class="st0" d="M363.4,383.7h-37.1c-15.5,27.8-44.7,43-76.3,43c-31.5,0-60.8-15.2-76.3-43h-37.2v-267h36.9
		c15.5-28.1,44.9-43.5,76.6-43.5c31.7,0,61.1,15.4,76.6,43.5h36.8V383.7z M250.1,72.8c-31.8,0-61.3,15.3-76.9,43.5h-37v267.8h37.3
		c15.7,27.8,45,43,76.6,43c31.6,0,60.9-15.2,76.6-43h37.3V116.3h-37C311.3,88.1,281.8,72.8,250.1,72.8"/>
	<path id="XMLID_57_" class="st1" d="M363.4,383.7h-37.1c-15.5,27.8-44.7,43-76.3,43c-31.5,0-60.8-15.2-76.3-43h-37.2v-267h36.9
		c15.5-28.1,44.9-43.5,76.6-43.5c31.7,0,61.1,15.4,76.6,43.5h36.8V383.7z M250.1,72.8c-31.8,0-61.3,15.3-76.9,43.5h-37v267.8h37.3
		c15.7,27.8,45,43,76.6,43c31.6,0,60.9-15.2,76.6-43h37.3V116.3h-37C311.3,88.1,281.8,72.8,250.1,72.8"/>
	<polyline id="XMLID_58_" class="st0" points="150.2,209.4 150.2,209.1 150.2,209.4 	"/>
	<path id="XMLID_59_" class="st0" d="M150.1,211.1c0-0.3,0-0.7,0-1c-0.2,3.6,0.2,7.2,1.3,10.6c-0.8-2.5-1.2-5.2-1.3-7.9V211.1z"/>
	<path id="XMLID_60_" class="st0" d="M230.1,132.3c-0.4,3.6-1.7,5.2-2.3,7.3c1.6-0.5,7.6-2.8,9.2-3.3c56.4-18,109.4-9.4,118.5,19.2
		c0.4,1,0.6,2.1,0.8,3.1c0.1,0.5,0.3,1,0.4,1.5c-0.2-2.5-0.6-4.9-1.4-7.2C345.8,122.9,288.2,114,230.1,132.3"/>
	<path id="XMLID_61_" class="st1" d="M230.1,132.3c-0.4,3.6-1.7,5.2-2.3,7.3c1.6-0.5,7.6-2.8,9.2-3.3c56.4-18,109.4-9.4,118.5,19.2
		c0.4,1,0.6,2.1,0.8,3.1c0.1,0.5,0.3,1,0.4,1.5c-0.2-2.5-0.6-4.9-1.4-7.2C345.8,122.9,288.2,114,230.1,132.3"/>
	<path id="XMLID_62_" class="st0" d="M151.4,220.7c-1.1-3.4-1.5-7-1.3-10.6c0-0.2,0-0.4,0-0.7l0-0.3c0.1-1.3,0.3-2.5,0.5-3.8l0,0
		l0,0c-2.3-0.6-4.5-1.7-6.4-3.4c-0.2-0.1-0.4-0.3-0.5-0.5c-1.8,6.5-1.8,12.9,0.2,18.9c6.3,19.8,32.2,30.6,65.8,30.4
		c0.3-0.5,0.5-1,0.8-1.5C180.3,248.7,157.2,238.7,151.4,220.7"/>
	<path id="XMLID_63_" class="st1" d="M151.4,220.7c-1.1-3.4-1.5-7-1.3-10.6c0-0.2,0-0.4,0-0.7l0-0.3c0.1-1.3,0.3-2.5,0.5-3.8l0,0
		l0,0c-2.3-0.6-4.5-1.7-6.4-3.4c-0.2-0.1-0.4-0.3-0.5-0.5c-1.8,6.5-1.8,12.9,0.2,18.9c6.3,19.8,32.2,30.6,65.8,30.4
		c0.3-0.5,0.5-1,0.8-1.5C180.3,248.7,157.2,238.7,151.4,220.7"/>
	<path id="XMLID_64_" class="st2" d="M237,136.3c-1.6,0.5-7.6,2.8-9.2,3.3c-1.1,2.9-3.4,6-5,8.7c6.1-2.7,12.6-5.1,19.3-7.2
		c54.5-17.4,105.5-9.8,114,16.9c0.1,0.2,0.1,0.4,0.2,0.6c-0.2-1.1-0.5-2.1-0.8-3.1C346.4,126.9,293.4,118.3,237,136.3"/>
	<path id="XMLID_65_" class="st2" d="M150.2,209.1l0,0.3c0,0.2,0,0.4,0,0.7c0,0.3,0,0.7,0,1v1.7c0.1,2.7,0.5,5.4,1.3,7.9
		c5.8,17.9,28.8,28,59.2,28.6c0.4-0.6,0.7-1.3,1.1-1.9c-27.3-1-47.8-10.1-52.9-26.2c-1.6-5.1-1.6-10.4-0.1-15.8
		c-2.5,0.7-5.3,0.7-7.9,0l0,0C150.5,206.6,150.3,207.9,150.2,209.1"/>
	<path id="XMLID_66_" class="st0" d="M294.3,170c0.8,0.1,1.7,0.1,2.7,0.1c0.3,0,0.7,0,1,0c1.1-0.5,2.8-1.6,2.9-3
		c0.1-0.8-0.6-0.9-1.3-0.9c0,0-0.6-0.1-1.1,0c-0.2,0-0.5,0.1-0.8,0.2C296.3,167.3,295.1,168.4,294.3,170"/>
	<path id="XMLID_67_" class="st0" d="M263,167.1l-0.2-0.5c-1.2,0-2.2,0.1-3.3,0.5c-1,0.8-2.1,1.7-3.4,2.8c-4.4,3.7-7.2,8.5-7.9,10.1
		c-0.5,1.2-0.5,2.4,0,3.5l0.1,0.3l0.4,0.2c4.2-2.4,4.8-2.9,9.8-7.9C261.1,173.5,262.2,170.6,263,167.1"/>
	<path id="XMLID_68_" class="st0" d="M280,286.1c5.1-5.4,9.7-15.3,12.5-25.6c0.7-2.7,2.4-10.5,2.4-17.7c0.1-7-1.6-12.7-6.6-13.2
		c-1,0.7-2,1.6-3,2.6c-1.1,1.1-2.1,2.5-3.1,4c0.5-0.2,1.1-0.3,1.6-0.3c5.2,0,7,12,2.6,28.1c-2.5,9.4-6.4,17.6-10.2,22.7
		c-0.5,0.6-0.9,1.1-1.3,1.6c0.6,0.3,1.3,0.5,2.1,0.6C278,288.1,279,287.2,280,286.1"/>
	<path id="XMLID_69_" class="st1" d="M280,286.1c5.1-5.4,9.7-15.3,12.5-25.6c0.7-2.7,2.4-10.5,2.4-17.7c0.1-7-1.6-12.7-6.6-13.2
		c-1,0.7-2,1.6-3,2.6c-1.1,1.1-2.1,2.5-3.1,4c0.5-0.2,1.1-0.3,1.6-0.3c5.2,0,7,12,2.6,28.1c-2.5,9.4-6.4,17.6-10.2,22.7
		c-0.5,0.6-0.9,1.1-1.3,1.6c0.6,0.3,1.3,0.5,2.1,0.6C278,288.1,279,287.2,280,286.1"/>
	<path id="XMLID_70_" class="st0" d="M257.7,369.7c5.2-5.5,9.9-15.8,12.6-26.3c4-15.3,3.5-29.5-4.2-30.3c-1,0.7-2,1.6-3,2.6
		c-1.1,1.1-2.1,2.5-3.1,4c0.6-0.2,1.1-0.3,1.6-0.3c5.2,0,7,12,2.7,28c-2.5,9.4-6.5,17.6-10.3,22.7c-0.4,0.6-0.9,1.1-1.3,1.6
		c0.6,0.3,1.4,0.5,2.2,0.6C255.7,371.6,256.7,370.7,257.7,369.7"/>
	<path id="XMLID_71_" class="st1" d="M257.7,369.7c5.2-5.5,9.9-15.8,12.6-26.3c4-15.3,3.5-29.5-4.2-30.3c-1,0.7-2,1.6-3,2.6
		c-1.1,1.1-2.1,2.5-3.1,4c0.6-0.2,1.1-0.3,1.6-0.3c5.2,0,7,12,2.7,28c-2.5,9.4-6.5,17.6-10.3,22.7c-0.4,0.6-0.9,1.1-1.3,1.6
		c0.6,0.3,1.4,0.5,2.2,0.6C255.7,371.6,256.7,370.7,257.7,369.7"/>
	<path id="XMLID_72_" class="st0" d="M277.9,394.3c-6.6,2.1-13.3,3.7-20.3,4.7c-5.1,0.7-10.4,1.1-15.7,1.1
		c-44.7-0.1-72.2-27.4-63.5-59.9c5.7-21.3,23.5-36.4,41.6-46.7c-8.8-10.8-12.1-21.6-8.3-35.7c4.9-18.4,21.3-34.7,42.4-44.3l-0.3,0.1
		c-18.1,7.3-33.4,19.3-42.1,33.7c0.5,0,1,0,1.5,0.1l-0.9,1.9l-0.7,1.5c-0.6,0-1.2,0-1.8,0c-1.8,3.4-3.1,6.9-4.1,10.5
		c-3.6,13.5-0.7,26,7.1,35.7c-20.1,11.3-35.3,28-40.3,46.6c-9.3,34.7,20.3,62.8,65.6,62.9c5.2,0,10.5-0.4,15.7-1.1
		c7.6-1,15.2-2.8,22.4-5.2c17.7-6,33.5-15.9,44.8-28.2c-9.9,8.5-22.2,15.4-35.7,20.1C282.9,392.9,280.5,393.7,277.9,394.3"/>
	<path id="XMLID_73_" class="st1" d="M277.9,394.3c-6.6,2.1-13.3,3.7-20.3,4.7c-5.1,0.7-10.4,1.1-15.7,1.1
		c-44.7-0.1-72.2-27.4-63.5-59.9c5.7-21.3,23.5-36.4,41.6-46.7c-8.8-10.8-12.1-21.6-8.3-35.7c4.9-18.4,21.3-34.7,42.4-44.3l-0.3,0.1
		c-18.1,7.3-33.4,19.3-42.1,33.7c0.5,0,1,0,1.5,0.1l-0.9,1.9l-0.7,1.5c-0.6,0-1.2,0-1.8,0c-1.8,3.4-3.1,6.9-4.1,10.5
		c-3.6,13.5-0.7,26,7.1,35.7c-20.1,11.3-35.3,28-40.3,46.6c-9.3,34.7,20.3,62.8,65.6,62.9c5.2,0,10.5-0.4,15.7-1.1
		c7.6-1,15.2-2.8,22.4-5.2c17.7-6,33.5-15.9,44.8-28.2c-9.9,8.5-22.2,15.4-35.7,20.1C282.9,392.9,280.5,393.7,277.9,394.3"/>
	<path id="XMLID_74_" class="st0" d="M212.4,249.3c-0.6,0-1.2,0-1.7,0c-0.3,0.5-0.6,1-0.8,1.5c0.6,0,1.2,0,1.8,0L212.4,249.3z"/>
	<path id="XMLID_75_" class="st1" d="M212.4,249.3c-0.6,0-1.2,0-1.7,0c-0.3,0.5-0.6,1-0.8,1.5c0.6,0,1.2,0,1.8,0L212.4,249.3z"/>
	<path id="XMLID_76_" class="st1" d="M212.4,249.3c-0.6,0-1.2,0-1.7,0c-0.3,0.5-0.6,1-0.8,1.5c0.6,0,1.2,0,1.8,0L212.4,249.3z"/>
	<path id="XMLID_77_" class="st2" d="M212.4,249.3l0.9-1.9c-0.5,0-1,0-1.5-0.1c-0.4,0.6-0.8,1.3-1.1,1.9
		C211.2,249.3,211.8,249.3,212.4,249.3"/>
	<path id="XMLID_78_" class="st1" d="M212.4,249.3l0.9-1.9c-0.5,0-1,0-1.5-0.1c-0.4,0.6-0.8,1.3-1.1,1.9
		C211.2,249.3,211.8,249.3,212.4,249.3"/>
	<path id="XMLID_79_" class="st2" d="M285.4,284.5c5.1-5.5,9.7-15.3,12.5-25.6c0.7-2.7,2.4-10.5,2.4-17.7c0.1-7.3-1.6-13.3-7.3-13.3
		c-1.5,0-3.1,0.6-4.7,1.7c5,0.5,6.6,6.3,6.6,13.2c0,7.2-1.7,15-2.4,17.7c-2.8,10.3-7.4,20.2-12.5,25.6c-1,1.1-2,2-3.1,2.7
		c0.2,0,0.5,0,0.7,0C280.2,288.8,282.8,287.3,285.4,284.5"/>
	<path id="XMLID_80_" class="st2" d="M270.6,311.4c-1.5,0-3.1,0.6-4.6,1.6c7.7,0.8,8.2,15,4.2,30.3c-2.7,10.5-7.3,20.8-12.6,26.3
		c-1,1.1-2,1.9-3,2.6c0.2,0,0.4,0,0.6,0c2.6,0,5.2-1.6,7.7-4.3c5.3-5.5,9.9-15.8,12.6-26.3C279.6,326,279,311.4,270.6,311.4"/>
	<path id="XMLID_81_" class="st2" d="M211.8,257.8c-3.8,14-0.4,24.9,8.3,35.7c-18.1,10.2-35.9,25.3-41.6,46.7
		c-8.7,32.5,18.8,59.8,63.5,59.9c5.3,0,10.5-0.4,15.7-1.1c7-1,13.7-2.6,20.3-4.7c-4.9,1.3-9.9,2.4-14.9,3.1
		c-5.1,0.7-10.4,1.1-15.7,1.1c-44.7-0.1-72.2-27.5-63.5-59.9c5.7-21.4,23.5-36.4,41.6-46.7c-8.8-10.7-12.1-21.6-8.4-35.6
		c5.2-19.4,23.2-36.5,45.9-45.8c2.4-1,4.8-1.8,7.2-2.6c-4.3,1.1-8.5,2.6-12.5,4.2c-1.2,0.5-2.3,1-3.5,1.5
		C233.1,223.2,216.6,239.4,211.8,257.8"/>
	<path id="XMLID_85_" class="st3" d="M263,368.1c-2.5,2.7-5.1,4.3-7.7,4.3c-0.2,0-0.4,0-0.6,0c-0.8-0.1-1.5-0.3-2.2-0.6
		c-3.3-1.8-4.5-6.7-4.5-12.6c0-7.2,1.7-15,2.4-17.7c2.2-8.1,5.6-16,9.4-21.6c1-1.5,2.1-2.9,3.1-4c1-1.1,2-2,3-2.6
		c1.6-1.1,3.1-1.6,4.6-1.6c8.4,0,9,14.6,4.9,30.4C272.9,352.3,268.3,362.6,263,368.1 M274.9,288.2c-3.4-1.7-4.5-6.8-4.5-12.6
		c0-7.2,1.7-15,2.4-17.7c2.2-8.1,5.6-16,9.4-21.7c1-1.5,2-2.8,3.1-4c1-1.1,2-1.9,3-2.6c1.5-1.1,3.1-1.7,4.7-1.7
		c5.6,0,7.3,6,7.3,13.3c0,7.2-1.6,15-2.4,17.7c-2.7,10.3-7.4,20.2-12.5,25.6c-2.5,2.7-5.2,4.3-7.7,4.3c-0.3,0-0.5,0-0.7,0
		C276.2,288.7,275.5,288.5,274.9,288.2 M300.7,202.9c-5.2-0.1-10.3,0.3-15.3,1.2c-5.2,0.8-10.3,2.1-15.2,3.7
		c-2.4,0.8-4.8,1.7-7.2,2.6c-22.7,9.4-40.7,26.4-45.9,45.8c-3.8,14-0.4,24.9,8.4,35.6c-18.1,10.3-35.9,25.3-41.6,46.7
		c-8.7,32.5,18.8,59.8,63.5,59.9c5.3,0,10.5-0.4,15.7-1.1c5.1-0.7,10.1-1.8,14.9-3.1c2.5-0.7,5-1.4,7.4-2.3
		c13.5-4.6,25.8-11.6,35.7-20.1c11.3-9.7,19.5-21.4,22.9-33.9c5.3-19.5-2-34.3-16.8-46.5c12.5-9.2,23.5-20.3,27.7-36
		C362.4,227.1,339,203,300.7,202.9"/>
	<path id="XMLID_86_" class="st2" d="M153.9,200.2c6.4,0.1,12.7-1.7,19-5c1.8-1,3.5-2,5.1-3.1c-0.3,0.2-0.5,0.3-0.8,0.5
		c-6.2,3.2-12.4,5-18.7,5c-7.3-0.1-12.5-3.4-12.4-10.9c0.1-6.5,3.3-12.8,8.9-18.9c1.3-1.4,2.6-2.6,3.9-3.3c-1.8,0.1-3.6,0.6-4.8,1.3
		c-1.4,0.7-2.9,2.1-4.3,3.6c-5.7,6.1-9,12.6-9.1,19.4C140.7,196.6,146.4,200.1,153.9,200.2"/>
	<path id="XMLID_87_" class="st2" d="M201.1,150.9c0-1.2,0.7-2.2,1.1-2.7c2.5-2.7,5-6.2,7.4-10.3c2.9-4.9,3.9-8.2,4-10.2
		c0-1.4-1.5-1.3-2.6-1.3c-3.8-0.1-9.4,2.1-16.9,7c5.3-3.1,9.4-4.3,12.3-4.3c1.5,0,1.8,0.2,1.8,0.2c0,0,0,0.1,0.1,0.3
		c-0.1,1.8-1.1,4.9-3.9,9.8c-2.4,4.1-4.8,7.5-7.3,10.2c-0.6,0.6-1.3,1.7-1.3,3.2c0,6.7,9.7,4.6,12.7,2c0.3-0.3,0.5-0.6,0.8-0.9
		C205.7,155.2,201.1,155.2,201.1,150.9"/>
	<path id="XMLID_88_" class="st2" d="M248.1,191.6c-0.5,0-2.8-0.2-4.2-1.1c-1-0.6-1.8-1.4-2.3-2.3c-0.8,1-1.5,2.1-2.3,3.2
		c-0.3,0.4-0.6,0.9-1,1.3c0.2,0.1,0.4,0.3,0.6,0.4c1.6,1,4.1,1.3,4.6,1.3c3.3-0.2,6.9-1.2,10.5-2.8c2.2-1,4.3-2.3,6.5-3.8
		c-0.7,0.4-1.4,0.8-2.1,1.1C254.8,190.5,251.2,191.4,248.1,191.6"/>
	<path id="XMLID_89_" class="st2" d="M299.6,166.1c0.7,0,1.3,0.1,1.3,0.9c-0.1,1.4-1.8,2.5-2.9,3c1.6-0.1,3.3-0.4,4.7-1.2
		c1.3-0.6,3.4-1.9,3.6-3.7c0.1-1.2-0.9-1.7-1.9-1.7c0,0-0.6-0.1-1.2,0c-0.7,0.1-1.7,0.3-2.6,1c-0.7,0.4-1.3,0.9-2,1.4
		c-0.3,0.2-0.5,0.4-0.7,0.5c0.3-0.1,0.6-0.1,0.8-0.2C299,166,299.6,166.1,299.6,166.1"/>
	<path id="XMLID_90_" class="st2" d="M302.6,187c-1,0.4-2.1,0.8-3.1,1.1c-6.1,2.2-11.1,3.2-14.5,3.2c-1-0.1-2.1-0.1-2.9-0.4
		c-1.1-0.4-7-5-6.2-9.6c0.2-1.9,1.6-4.7,2.4-6.4c2.2-3.5,4.7-6.6,7.8-9.4c2.8-2.4,5.7-4.4,8.6-5.9c0.9-0.4,2.1-1,3.5-1.5
		c-3.2,0.5-6.6,1.9-8.5,2.9c-3,1.6-5.9,3.6-8.8,6.1c-0.9,0.8-1.7,1.6-2.5,2.4c-0.6,1.5-1.6,3.2-2.8,4.9c-1.2,1.7-2.5,3.3-3.9,4.8
		c-0.6,1.4-1.2,2.9-1.3,4.2c-0.8,5.1,5.5,10,6.7,10.4c1,0.3,2.1,0.4,3.1,0.5c3.6,0,8.6-1.1,14.7-3.3c0.9-0.3,1.8-0.6,2.7-1
		c0.3,0.4,0.7,0.7,1.1,1c1.1,0.9,3.2,2.5,4.7,2.5h0.8l2.1-2.1c0.3-0.3,0.6-0.6,0.9-0.8c-1.2-0.4-2.6-1.5-3.4-2.2
		C303.5,187.9,303,187.5,302.6,187"/>
	<path id="XMLID_91_" class="st2" d="M326.8,190.6c-1.1-0.7-2-1.5-2.6-2.2c-1.1-1.6-2-2.7-1.1-4.9c0.3-1.1,5.4-6.5,6-7.1
		c2.2-2.6,4.9-4.9,7.4-7.2l-0.8-0.7l-1-0.9l-0.3-0.3c-0.4-0.4-0.6-0.5-0.8-0.7c-1.6,1.5-2.9,2.7-3.9,3.7l0.9,0.8l0.2,0.2
		c-2.3,2.2-4.8,4.3-6.9,6.7c-0.7,0.8-5.8,6.1-6.1,7.4c-1,2.5,0,3.7,1.2,5.5c0.7,0.9,1.7,1.7,2.8,2.4c1.5,1.1,3.3,1.9,5,2
		c3,0,7.1-1.8,11.8-4.6c0.8-0.5,1.7-1.1,2.7-1.8c-4.1,2.3-7.5,3.7-9.9,3.7C329.8,192.4,328.3,191.7,326.8,190.6"/>
	<path id="XMLID_92_" class="st2" d="M268.4,165.1c-0.2-0.7-0.4-1.1-0.5-1.2c-3.2-0.1-5.2,0.8-8.3,3.2c1-0.4,2.1-0.6,3.3-0.5
		l0.2,0.5c-0.9,3.5-1.9,6.4-4.4,9.1c-5,5-5.6,5.5-9.8,7.9l0.4,0.1c0.9-0.1,1.9-0.1,2.8-0.5c6-3.3,6.2-3.4,11.8-9.1
		C266.5,171.8,267.5,168.7,268.4,165.1"/>
	<path id="XMLID_93_" class="st2" d="M343.3,177.4c0.9-0.4,2.8-1.7,5.7-3.6c0.4-0.3,1-0.7,1.6-1.1c-0.4-0.1-0.8-0.2-1.2-0.2
		c-1.6,0-4.2,1.9-5.5,2.8c-2.9,1.9-4.8,3.1-5.7,3.5c-0.4,0.3-1,0.6-1.6,1c-1.1,1.1-2.4,2.4-3.5,3.7
		C336.8,181.7,342.2,178.1,343.3,177.4"/>
	<path id="XMLID_94_" class="st2" d="M191.8,183.6c-0.3,1.9,1.8,5.7,3.8,7.6c3,2.8,8.2,3.3,9.4,3.4c1.9,0,4.6-1,7.4-2.5
		c1.9-1,3.8-2.1,5.6-3.3c-0.4,0.2-0.9,0.5-1.3,0.7c-2.9,1.5-5.3,2.4-7.1,2.4c-1.3-0.1-6.1-0.6-8.9-3.2c-2-1.9-3.9-5.4-3.6-7
		c0.3-2.2,1.5-4.7,3.1-7.5c2.3-3.8,5.2-7.1,8.7-10.1c1.9-1.7,3.9-3.3,6-4.9c-0.5-0.1-0.9-0.1-1.4-0.1c-0.6,0-1.3,0.1-1.9,0.3
		c-2.7,2-5.3,4-7.8,6.3c-3,2.6-5.5,5.4-7.7,8.5c-0.6,1.5-1.5,3.1-2.8,4.8C192.6,180.6,192,182.2,191.8,183.6"/>
	<path id="XMLID_95_" class="st2" d="M210.4,182.9c2-0.7,5.3-3.2,10.2-7.8c4.8-4.6,9.2-9.8,13-15.5l0.1-0.1
		c-0.4-0.1-0.9-0.1-1.3-0.1c-1.3-0.1-3,0.3-4,1.9c-3.8,5.6-8.1,10.7-12.9,15.3c-2.2,2-4,3.6-5.5,4.8c-0.3,0.7-0.5,1.3-0.6,1.8
		C209.7,183.1,210.1,183,210.4,182.9"/>
	<path id="XMLID_96_" class="st2" d="M172.5,183.3c4.2-2.8,7.5-5.8,9.9-9.1c1.9-2.4,2.2-3.6,2.2-4c0-2.1-1.4-5.1-6.1-8.9
		c-5.1-4.1-8.5-8.7-8.4-13.8c0.1-7.9,4.8-14.6,12.8-20.2c6.2-4.3,12.1-7.4,17.7-9.3c-7.1,1.5-14.7,5.2-22.8,10.7
		c-8.1,5.7-13,12.5-13.1,20.7c-0.1,5.4,3.5,10.2,8.7,14.4c4.6,3.8,5.8,6.6,5.8,8.4c0,0.1-0.2,1.2-2.1,3.6c-2.4,3.2-5.6,6.2-9.7,8.9
		c-2,1.3-3.9,2.3-5.7,3.1C164.9,187.4,168.5,186,172.5,183.3"/>
	<path id="XMLID_97_" class="st2" d="M289,175.7c-0.7,1.1-1.2,2.2-1.6,3.2c1.8,0.2,3.7,0.3,5.2,0.3c3,0.1,9.1-1.8,11.4-3.7
		c0.4-0.3,0.8-0.7,1.2-1c-2.7,1.1-6,2-8,1.9C294.9,176.4,291.3,176.2,289,175.7"/>
	<path id="XMLID_98_" class="st2" d="M311.4,174.6c0,0,13.6-11.6,17.1-14.7c0.2-2,0.8-3.8,1.9-5.3c-1.6-0.8-3.4-0.7-4.9,1.2
		c-1.3,1.7-2.1,3.7-2.4,5.8c-3.7,3.3-16.8,14.5-16.8,14.5c-1.7,1.7-5.9,3.2-10.8,4.6c0.7-0.2,1.3-0.3,2-0.5
		C303.5,178.5,309.1,176.7,311.4,174.6"/>
	<path id="XMLID_99_" class="st2" d="M198,231.1V231c0.3-1.9,17.9-26.1,31.3-44.3c11.7-15.8,20-25.7,24.8-29.4l-0.4,0
		c-1.4-0.1-2.9,0.2-4.1,1c-4.7,3.4-13.4,13.6-25.5,30c-13.4,18-31.2,42.5-31.5,44.6l0,0.1v0.1c0,2.7,5.9,5.5,8.2,5.6
		c1.3,0,2.8-1.3,4.3-2.8C202.7,235.7,198,233,198,231.1"/>
	<path id="XMLID_100_" class="st0" d="M165.2,169.1v0.5c0,0-0.4,0.8-0.6,1.1c-2.4,3.4-4.1,5.9-5.8,8.4c-3.9,5.5-5.1,8.7-5.1,10
		c0.3,0.1,0.8,0.1,1.5,0.1c1.9,0,4.1-0.4,6.6-1.5c-0.7,0.1-1.3,0.1-2,0.1c-1.5,0-2.1-0.3-2.2-0.4c0-0.1,0-0.2,0-0.4
		c0-1.6,1.3-4.9,5.2-10.4c1.7-2.5,3.4-5,5.2-7.3l0.2-0.7l0,0.2l0.3-0.5c0.2-0.3,0.5-1,0.5-1v-0.3c0-5.2-7.1-4.4-10-2.8l-0.2,0.1
		C162.1,164.2,165.2,165.3,165.2,169.1"/>
	<path id="XMLID_101_" class="st0" d="M356.9,172.2c-0.8-0.6-1.7-0.9-2.7-1c-0.9,0-2.3,0.8-3.4,1.5c0.7,0.2,1.4,0.5,2,0.9
		c0.7,0.6,2.1,2.3,1.2,4.4c-0.9,1.7-5.3,5.2-6.6,6.2c-2.3,1.9-4.3,3.4-6.1,4.6c0.5-0.3,1-0.6,1.6-0.9c2.1-1.2,5-3.3,8.7-6.3
		c3.3-2.7,5.9-4.9,6.4-5.9C358.6,174.1,357.5,172.7,356.9,172.2"/>
	<path id="XMLID_102_" class="st0" d="M177.7,150.1c0,1.2,0.4,2.1,1.5,2.9c11.2,8.8,21.1,16.4,7.8,31.2c-2.6,2.9-5.7,5.5-9,7.8
		c5-2.8,9.4-6.2,13.1-10.3c0.9-1,1.6-1.9,2.3-2.8c0.5-1,1-2,1.6-3c0.4-0.6,0.8-1.2,1.2-1.8c4-9.6-4.1-15.6-12.8-22.6
		c-1.2-1-1.8-2-1.8-3.5c0.1-3.3,2.6-7.5,9.6-12.5c1-0.7,2-1.4,2.9-2c-2.2,1.2-4.5,2.8-7.1,4.6C180,143.1,177.7,147.2,177.7,150.1"/>
	<path id="XMLID_103_" class="st0" d="M221.7,129.3c-0.1,6.5-3.8,13.8-10,21.8c-0.8,1-1.6,2-2.5,3c1.4-0.4,2.6-1,3.3-1.7
		c1.1-1.2,2.2-2.5,3.2-3.8c6.1-8,9.7-15.1,9.8-21.4c0.1-7.7-5.5-11.2-13.3-11.3c-3.7,0-7.5,0.7-11.6,2c2.4-0.5,4.7-0.7,7-0.7
		C215.7,117.4,221.8,121,221.7,129.3"/>
	<path id="XMLID_104_" class="st0" d="M248.3,183.6c-0.5-1.2-0.5-2.4,0-3.5c0.7-1.6,3.4-6.4,7.9-10.1c1.3-1.1,2.4-2,3.4-2.8
		c-2,0.8-4.1,2.5-7.6,5.4c-4.3,3.6-7,8.4-7.7,9.8c-0.5,1.2-0.4,2.2,0.1,3.3v-0.2l0.2,0.1c0.7-0.1,1.7-0.1,2.3-0.5
		c0.7-0.4,1.3-0.7,1.8-1l-0.4-0.2L248.3,183.6z"/>
	<path id="XMLID_106_" class="st0" d="M236.9,191.4c-0.6,0.8-1.1,1.6-1.7,2.4c-9,12.3-17.3,25.2-26.3,37.5c-0.7,0.9-2.1,3-3.7,4.7
		l0.4,0c2.3,0,6.4-5.8,7.4-7.2c8.7-11.9,16.7-24.3,25.3-36.2C237.7,192.3,237.3,191.8,236.9,191.4"/>
	<path id="XMLID_107_" class="st0" d="M282.6,183.5c2.1,0,5.9-0.8,10-1.9c1-0.3,1.9-0.5,2.8-0.8c-3.4,0.8-6.6,1.4-8.4,1.4l-0.5-0.2
		l-0.2-0.1c0.2-0.8,0.5-1.8,0.9-3c-0.9-0.1-1.8-0.2-2.6-0.4C283.6,180.3,283,182.2,282.6,183.5"/>
	<path id="XMLID_108_" class="st0" d="M335.5,161.4c0.6,0.5,1.1,0.9,1.5,1.2c2.3,1.8,5.6,4.6,5.6,7.9c-0.1,2.8-2.7,5.2-4.6,6.9
		c-1.7,1.5-3.4,3-5.2,4.6l-0.5,0.5c1.6-1,3.1-2,4.4-2.8l0.3-0.3c1.8-1.6,3.5-3.1,5.2-4.6c2.2-2,4.2-4.2,4.3-6.4
		c0-2.6-2.6-5.1-5.4-7.3c-0.4-0.4-1-0.8-1.6-1.4c0.6-3.4-5.8-9.6-8.9-5.7l-0.3,0.4C332.9,155.8,335.1,159.1,335.5,161.4"/>
	<path id="XMLID_112_" class="st0" d="M304.8,159.2c2,1.8,3.6,4.1,3.8,6.9c0.4,4-0.5,5.9-3.4,8.4c1.2-0.5,2.3-1.1,3-1.6
		c3.7-2.9,4.8-4.5,4.3-8.7c-0.2-2.5-1.6-4.7-3.5-6.5c-2.3-2.1-7-1-10.7,0.4C300.8,157.7,303.3,157.8,304.8,159.2"/>
	<path id="XMLID_113_" class="st0" d="M278.5,169.4c0.3-0.7,0.5-1.4,0.7-2c0.3-1.5-0.5-4.8-2.8-6.9c-2.4-2.3-6.3-3.3-7.7-3.4
		c-1.3-0.1-3,0.3-4.8,1c-0.9-1.9-3.7-2.2-5.5-2.2c-1.3-0.1-2.6,0.2-3.6,0.9l-0.6,0.4c1.9,0,4.2,0.3,5.4,2c1.7-0.6,3.2-0.9,4.5-0.8
		c1.5,0.1,5.6,1.1,8.2,3.6c2.3,2.3,3.4,5.8,3,7.6c-0.5,2.2-1.8,4.6-3.5,7.2c-2.6,3.6-5.4,6.7-8.6,9c-0.9,0.7-1.8,1.3-2.6,1.9
		c2.3-1.3,4.6-2.8,6.8-4.5c1.6-1.2,3.1-2.6,4.5-4.1c0.4-0.9,0.8-1.7,1.1-2.5C274.6,174,276.4,171.6,278.5,169.4"/>
	<path id="XMLID_114_" class="st0" d="M329.1,169.7l-0.2-0.2c-2.5,2.3-4.1,3.9-5,4.6c-5.5,5.4-11,10.9-16.6,16.2
		c0.3,0.1,0.6,0.2,0.9,0.2h0.5l1.9-1.9c5.8-5.6,11.7-11.4,17.5-17.1c0.4-0.3,0.9-0.8,1.6-1.4l-0.1-0.1L329.1,169.7"/>
	<path id="XMLID_115_" class="st0" d="M297.7,170.2l0.3-0.2c-0.3,0-0.7,0-1,0c-1,0-1.9,0-2.7-0.1c0.8-1.6,2-2.7,3.4-3.7
		c-0.5,0.1-1,0.3-1.5,0.7c-0.6,0.5-1.3,0.9-2,1.4c-1.2,0.8-2.4,1.8-3.3,3c0.5,0,0.9,0,1.5,0C294.1,171.4,296.1,171.2,297.7,170.2"/>
	<path id="XMLID_116_" class="st0" d="M238.2,164.8c-0.3,2.2-4.3,7.3-5.5,8.8c-3.2,4.2-6,7.4-8.4,9.8c-2,2-4.1,3.8-6.2,5.3
		c3.7-2,7.2-4.6,10.4-7.9c2.4-2.4,5.1-5.6,8.3-9.7c2.9-3.8,5.2-7,5.3-8.5c0.4-3.5-2.7-4.6-5.1-4.6c-1.1-0.1-2.5,0.3-3.3,1.4
		C236,159.9,238.6,161.2,238.2,164.8"/>
	<path id="XMLID_117_" class="st0" d="M221.6,164.6c0,1.6-1.2,2.7-1.8,3.2c-2.6,1.6-5.7,4.6-9.3,9.2c-2.4,3-3.9,5.4-4.6,7.2
		c1-0.4,2.4-1.3,4.2-2.8c0.8-1.8,2.3-4.1,4.5-6.9c3.6-4.6,6.8-7.6,9.5-9.3c0.6-0.4,1.5-1.3,1.5-2.6c0-2.2-2-3.2-3.1-3.7
		c-1.4-0.7-2.9-1.2-4.2-1.2c-0.5,0-1.1,0.1-1.6,0.2c-0.5,0.4-1.1,0.8-1.6,1.2c1.1,0.2,2.1,0.6,3.1,1.1
		C219.9,161,221.6,162.4,221.6,164.6"/>
	<path id="XMLID_118_" class="st2" d="M155.1,167.7c-5.6,6.1-8.8,12.4-8.9,18.9c-0.1,7.4,5.1,10.8,12.4,10.9
		c6.2,0.1,12.5-1.7,18.7-5c0.3-0.1,0.5-0.3,0.8-0.5c3.3-2.3,6.3-4.9,9-7.8c13.3-14.8,3.4-22.4-7.8-31.2c-1.1-0.9-1.5-1.7-1.5-2.9
		c0.1-2.9,2.3-6.9,9.4-12c2.6-1.9,5-3.4,7.1-4.6c7.5-5,13.1-7.1,16.9-7c1.1,0,2.6-0.1,2.6,1.3c-0.1,2-1.1,5.3-4,10.2
		c-2.4,4.1-4.9,7.6-7.4,10.3c-0.5,0.5-1.2,1.5-1.2,2.7c0,4.3,4.6,4.3,8.1,3.2c0.8-1,1.7-1.9,2.5-3c6.1-8,9.9-15.3,10-21.8
		c0.1-8.3-6-11.9-14.1-12c-2.3,0-4.6,0.2-7,0.7c-5.6,1.9-11.5,5-17.7,9.3c-8,5.6-12.7,12.3-12.8,20.2c-0.1,5.1,3.3,9.7,8.4,13.8
		c4.6,3.9,6.1,6.8,6.1,8.9c0,0.4-0.4,1.6-2.2,4c-2.4,3.3-5.7,6.3-9.9,9.1c-4,2.7-7.6,4.1-10.7,4.5c-2.5,1-4.7,1.5-6.6,1.5
		c-0.7,0-1.2,0-1.5-0.1c0-1.3,1.2-4.5,5.1-10c1.7-2.5,3.4-5,5.8-8.4c0.2-0.4,0.6-1.1,0.6-1.1v-0.5c0-3.8-3.1-4.8-6.3-4.7
		C157.7,165.1,156.3,166.4,155.1,167.7"/>
	<path id="XMLID_119_" class="st1" d="M212.3,116c-3.7,0-7.5,0.7-11.6,2c-5.6,1.9-11.5,5-17.7,9.3c-8,5.6-12.7,12.3-12.8,20.2
		c-0.1,5.1,3.3,9.7,8.4,13.8c4.6,3.9,6.1,6.8,6.1,8.9c0,0.4-0.4,1.6-2.2,4c-2.4,3.3-5.7,6.3-9.9,9.1c-4,2.7-7.6,4.1-10.7,4.5
		c-0.7,0.1-1.3,0.1-2,0.1c-1.5,0-2.1-0.3-2.2-0.4c0-0.1,0-0.2,0-0.4c0-1.6,1.3-4.9,5.2-10.4c1.7-2.5,3.4-5,5.2-7.3l0.2-0.7l0,0.2
		l0.3-0.5c0.2-0.3,0.5-1,0.5-1v-0.3c0-5.2-7.1-4.4-10-2.8l-0.2,0.1c-1.2,0.7-2.6,2-3.9,3.3c-5.6,6.1-8.8,12.4-8.9,18.9
		c-0.1,7.4,5.1,10.8,12.4,10.9c6.2,0.1,12.5-1.7,18.7-5c0.3-0.1,0.5-0.3,0.8-0.5c5-2.8,9.4-6.2,13.1-10.3c0.9-1,1.6-1.9,2.3-2.8
		c0.5-1,1-2,1.6-3c0.4-0.6,0.8-1.2,1.2-1.8c4-9.6-4.1-15.6-12.8-22.6c-1.2-1-1.8-2-1.8-3.5c0.1-3.3,2.6-7.5,9.6-12.5
		c1-0.7,2-1.4,2.9-2c7.5-5,13.1-7.1,16.9-7c1.1,0,2.6-0.1,2.6,1.3c-0.1,2-1.1,5.3-4,10.2c-2.4,4.1-4.9,7.6-7.4,10.3
		c-0.5,0.5-1.1,1.5-1.1,2.7c0,4.3,4.6,4.3,8.1,3.2c1.4-0.4,2.6-1,3.3-1.7c1.1-1.2,2.2-2.5,3.2-3.8c6.1-8,9.7-15.1,9.8-21.4
		C225.7,119.5,220.1,116.1,212.3,116"/>
	<path id="XMLID_122_" class="st2" d="M294.2,168.3c0.7-0.5,1.4-0.9,2-1.4c0.5-0.4,1-0.6,1.5-0.7c0.2-0.2,0.5-0.4,0.7-0.5
		c0.7-0.5,1.4-0.9,2-1.4c0.9-0.7,1.9-0.9,2.6-1c0.7-0.1,1.2,0,1.2,0c1.1,0,2,0.5,1.9,1.7c-0.2,1.8-2.2,3.1-3.6,3.7
		c-1.4,0.8-3.1,1.1-4.7,1.2l-0.3,0.2c-1.5,1-3.6,1.2-5.3,1.2c-0.5,0-1,0-1.5,0C291.8,170.1,293,169.2,294.2,168.3 M353.9,178
		c0.9-2.1-0.5-3.8-1.2-4.4c-0.6-0.5-1.3-0.8-2-0.9c-0.7,0.4-1.3,0.9-1.6,1.1c-3,1.9-4.9,3.1-5.7,3.6c-1.1,0.7-6.6,4.2-10.1,6.1
		c1.1-1.3,2.4-2.6,3.5-3.7c-1.2,0.8-2.8,1.8-4.4,2.8l0.5-0.5c1.8-1.5,3.5-3.1,5.2-4.6c1.9-1.7,4.5-4.2,4.6-6.9
		c0-3.3-3.3-6.1-5.6-7.9c-0.4-0.3-0.9-0.7-1.5-1.2c-0.4-2.3-2.6-5.6-5.1-6.9c-1.1,1.6-1.8,3.4-1.9,5.3c-3.4,3.1-17.1,14.7-17.1,14.7
		c-2.2,2.1-7.9,3.9-13.9,5.6c-0.7,0.2-1.4,0.4-2,0.5c-0.9,0.3-1.9,0.5-2.8,0.8c-4.1,1.1-8,1.9-10,1.9c0.3-1.3,1-3.2,2.1-5
		c0.8,0.2,1.7,0.3,2.6,0.4c0.4-1,1-2.1,1.6-3.2c2.3,0.5,5.8,0.7,8.2,0.8c1.9,0.1,5.3-0.8,8-1.9c2.9-2.5,3.8-4.4,3.4-8.4
		c-0.2-2.8-1.7-5.1-3.8-6.9c-1.5-1.4-4-1.6-6.6-1.2c-1.4,0.5-2.7,1.1-3.5,1.5c-2.9,1.5-5.8,3.5-8.6,5.9c-3.1,2.7-5.6,5.9-7.8,9.4
		c-0.8,1.8-2.2,4.6-2.4,6.4c-0.8,4.6,5.1,9.2,6.2,9.6c0.8,0.3,1.9,0.3,2.9,0.4c3.5,0,8.4-1.1,14.5-3.2c1-0.3,2.1-0.7,3.1-1.1
		c0.4,0.5,0.8,0.9,1.3,1.3c0.7,0.6,2.2,1.7,3.4,2.2c5.6-5.4,11.1-10.8,16.6-16.3c0.9-0.7,2.5-2.3,5-4.6l0.2,0.2l0.4,0.4l0.1,0.1
		c1-0.9,2.3-2.1,3.9-3.7c0.2,0.2,0.4,0.4,0.8,0.7l0.3,0.3l1,0.9l0.8,0.7c-2.5,2.3-5.1,4.6-7.4,7.2c-0.6,0.6-5.7,6.1-6,7.1
		c-0.9,2.2,0,3.3,1.1,4.9c0.6,0.7,1.5,1.5,2.6,2.2c1.5,1,3.1,1.8,4.6,1.9c2.4,0,5.8-1.4,9.9-3.7c1.7-1.2,3.7-2.7,6.1-4.6
		C348.6,183.2,353,179.7,353.9,178"/>
	<path id="XMLID_125_" class="st1" d="M297.7,166.3c0.2-0.2,0.5-0.4,0.7-0.5c0.7-0.5,1.4-0.9,2-1.4c0.9-0.7,1.9-0.9,2.6-1
		c0.7-0.1,1.2,0,1.2,0c1.1,0,2,0.5,1.9,1.7c-0.2,1.8-2.2,3.1-3.6,3.7c-1.4,0.8-3.1,1.1-4.7,1.2c-0.3,0-0.7,0-1,0c-1,0-1.9,0-2.7-0.1
		C295.1,168.4,296.3,167.3,297.7,166.3 M356.9,172.2c-0.8-0.6-1.7-0.9-2.7-1c-0.9,0-2.3,0.8-3.4,1.5c-0.7,0.4-1.3,0.9-1.6,1.1
		c-3,1.9-4.9,3.1-5.7,3.6c-1.1,0.7-6.6,4.2-10.1,6.1c1.1-1.3,2.4-2.6,3.5-3.7l0.3-0.3c1.8-1.6,3.5-3.1,5.2-4.6
		c2.2-2,4.2-4.2,4.3-6.4c0-2.6-2.6-5.1-5.4-7.3c-0.4-0.4-1-0.8-1.6-1.4c0.6-3.4-5.8-9.6-8.9-5.7l-0.3,0.4c-1.1,1.6-1.8,3.4-1.9,5.3
		c-3.4,3.1-17.1,14.7-17.1,14.7c-2.2,2.1-7.9,3.9-13.9,5.6c-0.7,0.2-1.4,0.4-2,0.5c-3.4,0.8-6.6,1.4-8.4,1.4l-0.5-0.2l-0.2-0.1
		c0.2-0.8,0.5-1.8,0.9-3c0.4-1,1-2.1,1.6-3.2c2.3,0.5,5.8,0.7,8.2,0.8c1.9,0.1,5.3-0.8,8-1.9c1.2-0.5,2.3-1.1,3-1.6
		c3.7-2.9,4.8-4.5,4.3-8.7c-0.2-2.5-1.6-4.7-3.5-6.5c-2.3-2.1-7-1-10.7,0.4c-1.4,0.5-2.7,1.1-3.5,1.5c-2.9,1.5-5.8,3.5-8.6,5.9
		c-3.1,2.7-5.6,5.9-7.8,9.4c-0.8,1.8-2.2,4.6-2.4,6.4c-0.8,4.6,5.1,9.2,6.2,9.6c0.8,0.3,1.9,0.3,2.9,0.4c3.5,0,8.4-1.1,14.5-3.2
		c1-0.3,2.1-0.7,3.1-1.1c0.4,0.5,0.8,0.9,1.3,1.3c0.7,0.6,2.2,1.7,3.4,2.2c0.3,0.1,0.6,0.2,0.9,0.2h0.5l1.9-1.9
		c5.8-5.6,11.7-11.4,17.5-17.1c0.4-0.3,0.9-0.8,1.6-1.4c1-0.9,2.3-2.1,3.9-3.7c0.2,0.2,0.4,0.4,0.8,0.7l0.3,0.3l1,0.9l0.8,0.7
		c-2.5,2.3-5.1,4.6-7.4,7.2c-0.6,0.6-5.7,6.1-6,7.1c-0.9,2.2,0,3.3,1.1,4.9c0.6,0.7,1.5,1.5,2.6,2.2c1.5,1,3.1,1.8,4.6,1.9
		c2.4,0,5.8-1.4,9.9-3.7c0.5-0.3,1-0.6,1.6-0.9c2.1-1.2,5-3.3,8.7-6.3c3.3-2.7,5.9-4.9,6.4-5.9C358.6,174.1,357.5,172.7,356.9,172.2
		"/>
	<path id="XMLID_126_" class="st2" d="M278.5,169.4c-2.1,2.2-3.9,4.6-5.5,7.2c-0.3,0.7-0.7,1.6-1.1,2.5c1.4-1.4,2.7-3,3.9-4.8
		C276.9,172.6,277.9,171,278.5,169.4"/>
	<path id="XMLID_146_" class="st1" d="M263.8,174.7c-5.6,5.6-5.8,5.7-11.8,9.1c-0.8,0.5-1.9,0.4-2.8,0.5l-0.4-0.1l-0.4-0.2l-0.1-0.3
		c-0.5-1.2-0.5-2.4,0-3.5c0.7-1.6,3.4-6.4,7.9-10.1c1.3-1.1,2.4-2,3.4-2.8c3-2.4,5.1-3.4,8.3-3.2c0.1,0.1,0.3,0.4,0.5,1.2
		C267.5,168.7,266.5,171.8,263.8,174.7 M276.4,160.5c-2.4-2.3-6.3-3.3-7.7-3.4c-1.3-0.1-3,0.3-4.8,1c-0.9-1.9-3.7-2.2-5.5-2.2
		c-1.3-0.1-2.6,0.2-3.6,0.9l-0.6,0.4c-4.7,3.7-13.1,13.6-24.8,29.4c-13.5,18.2-31.1,42.5-31.3,44.3v0.2c0,1.9,4.7,4.5,7.1,4.9l0.4,0
		c2.3,0,6.4-5.8,7.4-7.2c8.7-11.9,16.7-24.3,25.3-36.2c0.3-0.4,0.6-0.9,1-1.3c0.8-1.1,1.5-2.2,2.3-3.2c0.5,0.9,1.3,1.7,2.3,2.3
		c1.5,0.9,3.8,1.1,4.2,1.1c3.1-0.1,6.7-1.1,10.3-2.8c0.7-0.3,1.4-0.7,2.1-1.1c2.3-1.3,4.6-2.8,6.8-4.5c1.6-1.2,3.1-2.6,4.5-4.1
		c1.4-1.4,2.7-3,3.9-4.8c1.2-1.7,2.1-3.4,2.8-4.9c0.3-0.7,0.5-1.4,0.7-2C279.5,165.9,278.6,162.6,276.4,160.5"/>
	<path id="XMLID_147_" class="st2" d="M193.4,178.9c1.3-1.7,2.2-3.3,2.8-4.8c-0.4,0.6-0.8,1.2-1.2,1.8
		C194.4,176.9,193.8,177.9,193.4,178.9"/>
	<path id="XMLID_148_" class="st1" d="M193.4,178.9c1.3-1.7,2.2-3.3,2.8-4.8c-0.4,0.6-0.8,1.2-1.2,1.8
		C194.4,176.9,193.8,177.9,193.4,178.9"/>
	<path id="XMLID_149_" class="st2" d="M200.2,174.2c-1.7,2.8-2.8,5.3-3.1,7.5c-0.2,1.6,1.6,5.1,3.6,7c2.8,2.6,7.7,3.1,8.9,3.2
		c1.7,0,4.2-0.9,7.1-2.4c0.4-0.2,0.9-0.4,1.3-0.7c2.2-1.5,4.3-3.3,6.2-5.3c2.4-2.4,5.2-5.7,8.4-9.8c1.1-1.5,5.2-6.6,5.5-8.8
		c0.4-3.6-2.1-4.9-4.4-5.3l-0.1,0.1c-3.8,5.6-8.2,10.8-13,15.5c-4.9,4.6-8.2,7.1-10.2,7.8c-0.3,0.1-0.7,0.2-1,0.3
		c0.1-0.5,0.3-1.1,0.6-1.8c-1.8,1.4-3.2,2.3-4.2,2.8c0.7-1.8,2.2-4.2,4.6-7.2c3.6-4.5,6.7-7.5,9.3-9.2c0.7-0.5,1.8-1.6,1.8-3.2
		c0-2.2-1.7-3.6-3.5-4.4c-1-0.5-2.1-0.9-3.1-1.1c-2.1,1.6-4.1,3.2-6,4.9C205.4,167.1,202.5,170.5,200.2,174.2"/>
	<path id="XMLID_150_" class="st1" d="M237,158.1c-1.1-0.1-2.5,0.3-3.3,1.4l-0.1,0.1c-3.8,5.6-8.2,10.8-13,15.5
		c-4.9,4.6-8.2,7.1-10.2,7.8c-0.3,0.1-0.7,0.2-1,0.3c0.1-0.5,0.3-1.1,0.6-1.8c0.8-1.8,2.3-4.1,4.5-6.9c3.6-4.6,6.8-7.6,9.5-9.3
		c0.6-0.4,1.5-1.3,1.5-2.6c0-2.2-2-3.2-3.1-3.7c-1.4-0.7-2.9-1.2-4.2-1.2c-0.5,0-1.1,0.1-1.6,0.2c-0.5,0.4-1.1,0.8-1.6,1.2
		c-2.1,1.6-4.1,3.2-6,4.9c-3.5,3-6.4,6.4-8.7,10.1c-1.7,2.8-2.8,5.3-3.1,7.5c-0.2,1.6,1.6,5.1,3.6,7c2.8,2.6,7.7,3.1,8.9,3.2
		c1.7,0,4.2-0.9,7.1-2.4c0.4-0.2,0.9-0.4,1.3-0.7c3.7-2,7.2-4.6,10.4-7.9c2.4-2.4,5.1-5.6,8.3-9.7c2.9-3.8,5.2-7,5.3-8.5
		C242.5,159.1,239.4,158.1,237,158.1"/>
	<path id="XMLID_153_" class="st2" d="M329.2,389c-15.5,26.4-45.9,42.8-79.2,42.8c-33.3,0-63.7-16.4-79.5-43l-39.1,0.3l-0.3-277.5
		l39.4-0.2c15.4-26.7,45.9-43.3,79.5-43.3c33.6,0,64,16.6,79.7,43.5l38.8-0.3l0.3,277.5L329.2,389z M368.9,111l-38.8,0.2
		c-15.5-26.9-46.2-43.7-80-43.7c-33.9,0-64.5,16.7-79.8,43.5l-39.5,0.3l0.3,278.2l39.2-0.2c15.7,26.6,46.3,43.2,79.8,43.2
		c33.5,0,64-16.5,79.4-43l39.7-0.3L368.9,111z"/>
	<path id="XMLID_156_" class="st0" d="M350.3,372c-1.2,1.2-2.7,1.8-4.4,1.8c-1.7,0-3.2-0.6-4.4-1.8c-1.2-1.2-1.8-2.7-1.8-4.4
		c0-1.7,0.6-3.2,1.8-4.4c1.2-1.2,2.7-1.8,4.4-1.8c1.7,0,3.2,0.6,4.4,1.8c1.2,1.2,1.8,2.7,1.8,4.4C352.1,369.3,351.5,370.8,350.3,372
		 M345.9,360.4c-2,0-3.7,0.7-5.1,2.1c-1.4,1.4-2.1,3.1-2.1,5.1c0,2,0.7,3.7,2.1,5.1c1.4,1.4,3.1,2.1,5.1,2.1c2,0,3.7-0.7,5.1-2.1
		c1.4-1.4,2.1-3.1,2.1-5.1c0-2-0.7-3.7-2.1-5.1C349.6,361.1,347.9,360.4,345.9,360.4"/>
	<path id="XMLID_159_" class="st1" d="M350.3,372c-1.2,1.2-2.7,1.8-4.4,1.8c-1.7,0-3.2-0.6-4.4-1.8c-1.2-1.2-1.8-2.7-1.8-4.4
		c0-1.7,0.6-3.2,1.8-4.4c1.2-1.2,2.7-1.8,4.4-1.8c1.7,0,3.2,0.6,4.4,1.8c1.2,1.2,1.8,2.7,1.8,4.4C352.1,369.3,351.5,370.8,350.3,372
		 M345.9,360.4c-2,0-3.7,0.7-5.1,2.1c-1.4,1.4-2.1,3.1-2.1,5.1c0,2,0.7,3.7,2.1,5.1c1.4,1.4,3.1,2.1,5.1,2.1c2,0,3.7-0.7,5.1-2.1
		c1.4-1.4,2.1-3.1,2.1-5.1c0-2-0.7-3.7-2.1-5.1C349.6,361.1,347.9,360.4,345.9,360.4"/>
	<path id="XMLID_162_" class="st0" d="M347,367.3c-0.3,0.1-0.7,0.2-1.3,0.2h-1.3v-2.9h1.2c0.8,0,1.3,0.1,1.7,0.3
		c0.4,0.2,0.5,0.6,0.5,1.1C347.8,366.6,347.5,367,347,367.3 M349.2,365.9c0-1-0.4-1.7-1.2-2c-0.4-0.2-1.2-0.3-2.2-0.3H343v7.9h1.4
		v-3.1h1.1c0.7,0,1.3,0.1,1.6,0.3c0.5,0.3,0.7,0.9,0.7,1.8v0.6l0,0.3l0,0.1l0,0.1h1.3l0-0.1c0-0.1-0.1-0.2-0.1-0.4
		c0-0.2,0-0.4,0-0.6v-0.6c0-0.4-0.1-0.8-0.4-1.2c-0.3-0.4-0.7-0.7-1.4-0.8c0.5-0.1,0.9-0.2,1.1-0.4
		C348.9,367.1,349.2,366.6,349.2,365.9"/>
	<path id="XMLID_165_" class="st1" d="M347,367.3c-0.3,0.1-0.7,0.2-1.3,0.2h-1.3v-2.9h1.2c0.8,0,1.3,0.1,1.7,0.3
		c0.4,0.2,0.5,0.6,0.5,1.1C347.8,366.6,347.5,367,347,367.3 M349.2,365.9c0-1-0.4-1.7-1.2-2c-0.4-0.2-1.2-0.3-2.2-0.3H343v7.9h1.4
		v-3.1h1.1c0.7,0,1.3,0.1,1.6,0.3c0.5,0.3,0.7,0.9,0.7,1.8v0.6l0,0.3l0,0.1l0,0.1h1.3l0-0.1c0-0.1-0.1-0.2-0.1-0.4
		c0-0.2,0-0.4,0-0.6v-0.6c0-0.4-0.1-0.8-0.4-1.2c-0.3-0.4-0.7-0.7-1.4-0.8c0.5-0.1,0.9-0.2,1.1-0.4
		C348.9,367.1,349.2,366.6,349.2,365.9"/>
</g>
</svg>
