<?xml version="1.0" encoding="utf-8"?>
<!-- Generator: Adobe Illustrator 19.2.1, SVG Export Plug-In . SVG Version: 6.00 Build 0)  -->
<svg version="1.1" id="layer" xmlns="http://www.w3.org/2000/svg" xmlns:xlink="http://www.w3.org/1999/xlink" x="0px" y="0px"
	 viewBox="0 0 652 652" style="enable-background:new 0 0 652 652;" xml:space="preserve">
<style type="text/css">
	.st0{fill-rule:evenodd;clip-rule:evenodd;fill:#040000;}
	.st1{fill:none;stroke:#231815;stroke-width:0.3622;stroke-miterlimit:2.613;}
	.st2{fill:none;stroke:#231815;stroke-width:0.3343;stroke-miterlimit:2.613;}
	.st3{fill:#040000;}
	.st4{fill:#FF4D00;}
	.st5{fill:none;stroke:#FFFFFF;stroke-width:1.6368;stroke-miterlimit:10;}
	.st6{fill:#FFF100;}
	.st7{fill:#77BD3E;}
	.st8{fill:none;stroke:#FFFFFF;stroke-width:1.5463;stroke-miterlimit:10;}
</style>
<g>
	<path class="st0" d="M614.7,432.5c-0.7,0.7-1.1,1.6-1.1,2.6c0,1,0.4,1.8,1.1,2.5c0.7,0.7,1.6,1.1,2.6,1.1c1,0,1.9-0.4,2.6-1.1
		c0.7-0.7,1.1-1.6,1.1-2.5c0-1-0.4-1.9-1.1-2.6c-0.7-0.7-1.6-1.1-2.6-1.1C616.3,431.4,615.4,431.8,614.7,432.5 M595,410.7
		c1.1,0.8,2.1,2.1,2.8,4.1c0.8,1.9,1.1,4.9,1.1,8.8c0,3.3-0.4,6-1.1,8c-0.7,2.1-1.7,3.5-3,4.5c-1,0.7-2.3,1.1-3.8,1.1
		c-2.2,0-3.9-0.8-5.2-2.5c-1.8-2.4-2.7-6.1-2.7-11.2c0-4.3,0.6-7.5,1.7-9.8c1.4-2.8,3.5-4.2,6.2-4.2
		C592.5,409.5,593.9,409.9,595,410.7 M579.7,412.2c-3,3-4.5,6.6-4.5,11c0,3.9,1.2,7.3,3.4,10.2c2.9,3.6,7.1,5.4,12.4,5.4
		c5.3,0,9.4-1.9,12.4-5.7c2.2-2.9,3.3-6.1,3.3-9.9c0-4.4-1.5-8.1-4.4-11c-3-2.9-6.8-4.3-11.5-4.1
		C586.5,407.9,582.7,409.3,579.7,412.2 M567,407.8c-0.1,0.8-0.3,1.3-0.7,1.6c-0.4,0.4-0.8,0.5-1.2,0.5c-0.4,0-1.2-0.3-2.5-0.8
		c-2.3-0.9-4.5-1.3-6.6-1.3c-2.8,0-5.5,0.7-8,2.1c-2.5,1.4-4.5,3.4-6,5.9c-1.5,2.5-2.2,5.2-2.2,8.1c0,2.7,0.7,5.2,2,7.6
		c1.3,2.4,3.2,4.2,5.6,5.5c2.5,1.3,5.3,1.9,8.4,1.9c2.4,0,4.5-0.4,6.3-1.2c1.8-0.8,3.5-2.1,5.2-3.8v-2.6c-1.7,2-3.4,3.4-4.9,4.3
		c-1.6,0.8-3.3,1.2-5.1,1.2c-2.2,0-4.1-0.5-5.5-1.7c-1.4-1.1-2.5-2.8-3.2-5c-0.7-2.2-1-4.6-1-7.2c0-2.7,0.4-5.2,1.4-7.4
		c0.7-1.7,1.8-3.1,3.4-4.2c1.6-1.1,3.2-1.6,5.1-1.6c2.2,0,4.2,0.7,5.9,2.2c1.7,1.4,3,3.5,3.6,6.2h0.8v-10.3H567z M501.3,407.8
		c-0.2,0.9-0.4,1.4-0.6,1.7c-0.2,0.2-0.5,0.4-0.9,0.4c-0.4,0-1.1-0.2-2.1-0.7c-1-0.4-1.8-0.8-2.5-0.9c-0.9-0.2-1.8-0.4-2.8-0.4
		c-2.6,0-4.8,0.8-6.6,2.5c-1.7,1.7-2.6,3.7-2.6,6c0,1.4,0.3,2.6,0.9,3.8c0.6,1.1,1.5,2.2,2.7,3.1c1.2,0.9,3.1,2.1,5.8,3.4
		c1.9,0.9,3.3,1.7,4,2.3c0.8,0.6,1.3,1.2,1.7,1.8c0.4,0.7,0.5,1.3,0.5,2.1c0,1.2-0.5,2.2-1.5,3.1c-0.9,0.9-2.2,1.3-3.9,1.3
		c-2.1,0-4.1-0.8-5.9-2.5c-1.8-1.7-3.1-4.1-3.7-7.2h-0.8v11.2h0.8c0.3-0.6,0.6-1.1,1-1.3c0.4-0.3,0.8-0.4,1.2-0.4
		c0.4,0,1,0.1,1.7,0.4c1.3,0.5,2.3,0.8,3.1,1.1c0.8,0.2,1.7,0.3,2.7,0.3c3,0,5.4-0.9,7.3-2.7c1.9-1.8,2.9-3.9,2.9-6.4
		c0-1.9-0.6-3.7-1.8-5.2c-1.2-1.5-3.6-3.1-7-4.8c-2.5-1.2-4.1-2.1-4.7-2.5c-0.9-0.7-1.6-1.3-2.1-2c-0.3-0.5-0.4-1.1-0.4-1.7
		c0-1,0.4-2,1.3-2.7c0.9-0.8,2.1-1.2,3.5-1.2c1.9,0,3.7,0.8,5.4,2.3c1.7,1.5,2.7,3.5,3.1,5.9h0.9l-0.2-9.9H501.3z M449.4,408.5v8
		h0.8c0.3-2.2,1.1-3.9,2.4-5.1c0.9-0.8,2.4-1.3,4.3-1.3h2.2v22.9c0,1.5-0.1,2.4-0.2,2.8c-0.2,0.5-0.5,0.8-0.9,1.1
		c-0.5,0.3-1.2,0.4-2.1,0.4h-1v0.8h15.4v-0.8h-1c-0.8,0-1.5-0.1-2-0.4c-0.5-0.3-0.8-0.6-0.9-1c-0.2-0.4-0.3-1.3-0.3-2.9v-22.9h2.2
		c1.4,0,2.4,0.1,2.9,0.4c1,0.5,1.8,1.1,2.3,1.9c0.6,0.8,1.1,2.1,1.6,4h0.8v-8H449.4z M441.2,407.8c-0.1,0.8-0.3,1.3-0.7,1.6
		c-0.4,0.4-0.8,0.5-1.2,0.5c-0.4,0-1.2-0.3-2.6-0.8c-2.3-0.9-4.5-1.3-6.6-1.3c-2.8,0-5.5,0.7-8,2.1c-2.5,1.4-4.5,3.4-6,5.9
		c-1.5,2.5-2.2,5.2-2.2,8.1c0,2.7,0.7,5.2,2,7.6c1.3,2.4,3.2,4.2,5.6,5.5c2.5,1.3,5.3,1.9,8.4,1.9c2.4,0,4.5-0.4,6.3-1.2
		c1.8-0.8,3.5-2.1,5.2-3.8v-2.6c-1.7,2-3.4,3.4-4.9,4.3c-1.6,0.8-3.3,1.2-5.1,1.2c-2.2,0-4.1-0.5-5.5-1.7c-1.4-1.1-2.5-2.8-3.2-5
		c-0.7-2.2-1-4.6-1-7.2c0-2.7,0.4-5.2,1.4-7.4c0.7-1.7,1.8-3.1,3.4-4.2c1.6-1.1,3.2-1.6,5.1-1.6c2.2,0,4.2,0.7,5.9,2.2
		c1.7,1.4,3,3.5,3.6,6.2h0.8v-10.3H441.2z M377.6,409.2c1.3,0,2.1,0.1,2.6,0.4c0.4,0.2,0.8,0.6,1,1c0.2,0.4,0.3,1.5,0.3,3.2v14.5
		c0,2.5,0.4,4.4,1.2,5.9c0.8,1.4,2.1,2.6,4.1,3.6c1.4,0.7,3.4,1,5.9,1c3.1,0,5.5-0.7,7.3-1.9c1.7-1.3,2.9-2.7,3.4-4.3
		c0.4-1.5,0.7-4,0.7-7.5v-11.3c0-1.2,0.1-2.1,0.3-2.5c0.3-0.7,0.7-1.2,1.2-1.5c0.5-0.3,1.3-0.5,2.1-0.5h0.6v-0.8h-10.3v0.8
		c1.2,0,2.2,0.2,2.8,0.5c0.4,0.2,0.8,0.6,1.1,1.2c0.3,0.6,0.4,1.5,0.4,2.9v12.1c0,3.1-0.3,5.4-0.8,6.6c-0.5,1.3-1.4,2.3-2.5,3
		c-1.2,0.7-2.5,1.1-4.1,1.1c-1.4,0-2.6-0.3-3.4-0.9c-0.9-0.6-1.6-1.3-2-2.1c-0.4-0.8-0.6-2.6-0.6-5.3v-14.5c0-1.7,0.1-2.8,0.3-3.2
		c0.2-0.4,0.5-0.8,0.9-1c0.4-0.2,1.2-0.4,2.4-0.4h0.8v-0.8h-15.3V409.2z M358.1,410.8c1.5,0.6,2.7,1.8,3.7,3.6
		c1.2,2.3,1.8,5.3,1.8,9.1c0,4.7-0.9,8.2-2.6,10.4c-1.3,1.7-3.1,2.5-5.6,2.5c-0.7,0-1.3-0.1-1.7-0.3c-0.3-0.2-0.4-0.4-0.6-0.7
		c-0.1-0.3-0.2-1-0.2-2.2v-23.1C355.3,410.1,357.1,410.3,358.1,410.8 M354.9,438.1c1.9,0,3.3-0.1,4.2-0.3c2-0.4,3.7-0.9,5.1-1.6
		c1.4-0.7,2.6-1.6,3.7-2.7c1.1-1.2,2-2.6,2.6-4.4c0.7-1.7,1-3.7,1-5.8c0-3-0.7-5.7-2.1-8.1c-1.3-2.4-3.4-4.2-6-5.4
		c-2.2-0.9-5-1.4-8.6-1.4h-13.2v0.8h1c0.8,0,1.5,0.1,2,0.4c0.5,0.3,0.8,0.6,1,1c0.1,0.4,0.2,1.3,0.2,2.9v19.6c0,1.5,0,2.5-0.2,2.8
		c-0.2,0.5-0.6,0.8-1,1.1c-0.4,0.3-1.1,0.4-2,0.4h-1v0.8H354.9z M324.4,410.7c1.1,0.8,2.1,2.1,2.8,4.1c0.8,1.9,1.1,4.9,1.1,8.8
		c0,3.3-0.4,6-1.1,8c-0.7,2.1-1.7,3.5-3,4.5c-1,0.7-2.3,1.1-3.8,1.1c-2.2,0-3.9-0.8-5.2-2.5c-1.8-2.4-2.7-6.1-2.7-11.2
		c0-4.3,0.6-7.5,1.7-9.8c1.4-2.8,3.5-4.2,6.2-4.2C321.9,409.5,323.3,409.9,324.4,410.7 M309.1,412.2c-3,3-4.5,6.6-4.5,11
		c0,3.9,1.2,7.3,3.4,10.2c2.9,3.6,7.1,5.4,12.4,5.4c5.3,0,9.4-1.9,12.3-5.7c2.2-2.9,3.3-6.1,3.3-9.9c0-4.4-1.5-8.1-4.4-11
		c-3-2.9-6.8-4.3-11.5-4.1C315.8,407.9,312.1,409.3,309.1,412.2 M281.6,410.1c2.4,0,4.1,0.5,5.1,1.6c1,1.1,1.6,2.7,1.6,5
		c0,1.6-0.3,2.8-0.8,3.8c-0.6,0.9-1.4,1.6-2.4,2c-1,0.4-2.5,0.5-4.6,0.5h-1.3v-12.9H281.6z M281.2,424.6l9.5,13.5h9.4v-0.8
		c-0.8,0-1.5-0.3-2.1-0.8c-0.4-0.3-1-1.1-2-2.4l-7.1-10.1c1.8-0.4,3.2-1.1,4.2-2c1.6-1.4,2.4-3.3,2.4-5.5c0-1.8-0.5-3.4-1.6-4.7
		c-1.1-1.3-2.4-2.2-4.1-2.7c-1.7-0.5-4.3-0.8-7.9-0.8h-13.8v0.8c1.3,0,2.3,0.1,2.8,0.4c0.5,0.3,0.8,0.6,1,1c0.2,0.4,0.3,1.4,0.3,3
		V433c0,1.6-0.1,2.6-0.3,3c-0.2,0.4-0.5,0.8-1,1c-0.5,0.3-1.4,0.4-2.8,0.4v0.8h15.2v-0.8c-1.3,0-2.3-0.1-2.8-0.4
		c-0.5-0.3-0.9-0.6-1-1c-0.2-0.5-0.3-1.4-0.3-3.1v-8.4H281.2z M249.7,410.2c1.9,0,3.4,0.5,4.3,1.5c0.9,1,1.4,2.6,1.4,4.9
		c0,2.2-0.5,3.9-1.4,4.9c-1,1.1-2.4,1.6-4.1,1.6c-0.3,0-0.6,0-1.1,0v-12.8H249.7z M256,424.2c2.1-0.5,3.8-1.4,5-2.8
		c1.2-1.4,1.8-3.1,1.8-5c0-2.3-0.9-4.2-2.8-5.7c-1.9-1.5-4.9-2.3-9.2-2.3h-12.9v0.8c1.3,0,2.3,0.1,2.8,0.4c0.5,0.3,0.8,0.6,1,1
		c0.2,0.4,0.3,1.4,0.3,3v19.3c0,1.6-0.1,2.6-0.3,3c-0.2,0.4-0.5,0.8-1,1c-0.5,0.3-1.4,0.4-2.8,0.4v0.8H253v-0.8
		c-1.3,0-2.3-0.1-2.8-0.4c-0.5-0.3-0.8-0.6-1-1c-0.2-0.4-0.3-1.4-0.3-3v-8.2C252.2,424.7,254.6,424.5,256,424.2 M200,407.8
		c-0.2,0.9-0.4,1.4-0.6,1.7c-0.2,0.2-0.5,0.4-0.9,0.4c-0.4,0-1.1-0.2-2.1-0.7c-1-0.4-1.8-0.8-2.5-0.9c-0.9-0.2-1.8-0.4-2.8-0.4
		c-2.6,0-4.8,0.8-6.6,2.5c-1.7,1.7-2.6,3.7-2.6,6c0,1.4,0.3,2.6,0.9,3.8c0.6,1.1,1.5,2.2,2.7,3.1c1.2,0.9,3.1,2.1,5.8,3.4
		c1.9,0.9,3.3,1.7,4,2.3c0.8,0.6,1.3,1.2,1.7,1.8c0.4,0.7,0.5,1.3,0.5,2.1c0,1.2-0.5,2.2-1.5,3.1c-0.9,0.9-2.2,1.3-3.9,1.3
		c-2.1,0-4.1-0.8-5.9-2.5c-1.8-1.7-3.1-4.1-3.7-7.2H182v11.2h0.8c0.3-0.6,0.6-1.1,1-1.3c0.4-0.3,0.8-0.4,1.2-0.4
		c0.4,0,1,0.1,1.7,0.4c1.2,0.5,2.3,0.8,3.1,1.1c0.8,0.2,1.7,0.3,2.7,0.3c3,0,5.4-0.9,7.3-2.7c1.9-1.8,2.9-3.9,2.9-6.4
		c0-1.9-0.6-3.7-1.8-5.2c-1.2-1.5-3.6-3.1-7-4.8c-2.5-1.2-4.1-2.1-4.7-2.5c-0.9-0.7-1.6-1.3-2.1-2c-0.3-0.5-0.4-1.1-0.4-1.7
		c0-1,0.4-2,1.3-2.7c0.9-0.8,2.1-1.2,3.5-1.2c1.9,0,3.7,0.8,5.4,2.3c1.7,1.5,2.7,3.5,3.1,5.9h0.9l-0.2-9.9H200z M145.1,409.2
		c1.3,0,2.1,0.1,2.6,0.4c0.5,0.2,0.8,0.6,1,1c0.2,0.4,0.3,1.5,0.3,3.2v14.5c0,2.5,0.4,4.4,1.2,5.9c0.8,1.4,2.2,2.6,4.1,3.6
		c1.4,0.7,3.4,1,5.9,1c3.1,0,5.5-0.7,7.3-1.9c1.7-1.3,2.9-2.7,3.4-4.3c0.5-1.5,0.7-4,0.7-7.5v-11.3c0-1.2,0.1-2.1,0.3-2.5
		c0.3-0.7,0.7-1.2,1.2-1.5c0.5-0.3,1.3-0.5,2.1-0.5h0.6v-0.8h-10.2v0.8c1.2,0,2.1,0.2,2.8,0.5c0.5,0.2,0.8,0.6,1.1,1.2
		c0.3,0.6,0.4,1.5,0.4,2.9v12.1c0,3.1-0.3,5.4-0.8,6.6c-0.5,1.3-1.4,2.3-2.5,3c-1.2,0.7-2.5,1.1-4.1,1.1c-1.4,0-2.5-0.3-3.4-0.9
		c-0.9-0.6-1.6-1.3-2-2.1c-0.4-0.8-0.6-2.6-0.6-5.3v-14.5c0-1.7,0.1-2.8,0.3-3.2c0.2-0.4,0.5-0.8,0.9-1c0.4-0.2,1.2-0.4,2.4-0.4h0.8
		v-0.8h-15.3V409.2z M122.7,410.1c2.4,0,4.1,0.5,5.1,1.6c1,1.1,1.6,2.7,1.6,5c0,1.6-0.3,2.8-0.8,3.8c-0.6,0.9-1.4,1.6-2.4,2
		c-1,0.4-2.5,0.5-4.6,0.5h-1.3v-12.9H122.7z M122.4,424.6l9.5,13.5h9.4v-0.8c-0.8,0-1.5-0.3-2.1-0.8c-0.4-0.3-1-1.1-2-2.4l-7.1-10.1
		c1.8-0.4,3.2-1.1,4.2-2c1.6-1.4,2.4-3.3,2.4-5.5c0-1.8-0.5-3.4-1.6-4.7c-1.1-1.3-2.4-2.2-4.1-2.7c-1.7-0.5-4.3-0.8-7.9-0.8h-13.8
		v0.8c1.3,0,2.3,0.1,2.8,0.4c0.5,0.3,0.8,0.6,1,1c0.2,0.4,0.3,1.4,0.3,3V433c0,1.6-0.1,2.6-0.3,3c-0.2,0.4-0.5,0.8-1,1
		c-0.5,0.3-1.4,0.4-2.8,0.4v0.8h15.2v-0.8c-1.3,0-2.3-0.1-2.8-0.4c-0.5-0.3-0.8-0.6-1-1c-0.2-0.5-0.3-1.4-0.3-3.1v-8.4H122.4z
		 M77,408.5v8h0.8c0.3-2.2,1.1-3.9,2.4-5.1c0.9-0.8,2.4-1.3,4.3-1.3h2.2v22.9c0,1.5-0.1,2.4-0.2,2.8c-0.2,0.5-0.5,0.8-0.9,1.1
		c-0.5,0.3-1.2,0.4-2.1,0.4h-1v0.8H98v-0.8h-1c-0.8,0-1.5-0.1-2-0.4c-0.5-0.3-0.8-0.6-0.9-1c-0.2-0.4-0.3-1.3-0.3-2.9v-22.9h2.2
		c1.4,0,2.4,0.1,2.9,0.4c1,0.5,1.8,1.1,2.3,1.9c0.6,0.8,1.1,2.1,1.6,4h0.8v-8H77z M70.1,437.4c-0.8,0-1.5-0.1-2-0.4
		c-0.4-0.3-0.8-0.6-0.9-1c-0.2-0.4-0.3-1.3-0.3-2.9v-19.6c0-1.5,0.1-2.4,0.2-2.8c0.2-0.5,0.5-0.8,0.9-1.1c0.5-0.3,1.2-0.4,2.1-0.4h1
		v-0.8H55.6v0.8h1c0.8,0,1.5,0.1,2,0.4c0.5,0.3,0.8,0.6,1,1c0.1,0.4,0.2,1.3,0.2,2.9v19.6c0,1.5-0.1,2.4-0.2,2.8
		c-0.2,0.5-0.5,0.8-0.9,1.1c-0.5,0.3-1.2,0.4-2.1,0.4h-1v0.8H71v-0.8H70.1z M48.1,407.8c-0.1,0.8-0.3,1.3-0.7,1.6
		c-0.4,0.4-0.8,0.5-1.2,0.5c-0.4,0-1.2-0.3-2.5-0.8c-2.3-0.9-4.5-1.3-6.6-1.3c-2.8,0-5.5,0.7-8,2.1c-2.5,1.4-4.5,3.4-6,5.9
		c-1.5,2.5-2.2,5.2-2.2,8.1c0,2.7,0.7,5.2,2,7.6c1.3,2.4,3.2,4.2,5.6,5.5c2.5,1.3,5.3,1.9,8.4,1.9c2.4,0,4.5-0.4,6.3-1.2
		c1.8-0.8,3.5-2.1,5.2-3.8v-2.6c-1.7,2-3.4,3.4-4.9,4.3c-1.6,0.8-3.3,1.2-5.1,1.2c-2.2,0-4.1-0.5-5.5-1.7c-1.4-1.1-2.5-2.8-3.2-5
		c-0.7-2.2-1-4.6-1-7.2c0-2.7,0.5-5.2,1.4-7.4c0.7-1.7,1.8-3.1,3.4-4.2c1.6-1.1,3.2-1.6,5.1-1.6c2.2,0,4.2,0.7,5.9,2.2
		c1.7,1.4,3,3.5,3.6,6.2H49v-10.3H48.1z"/>
	<path class="st1" d="M614.7,432.5c-0.7,0.7-1.1,1.6-1.1,2.6c0,1,0.4,1.8,1.1,2.5c0.7,0.7,1.6,1.1,2.6,1.1c1,0,1.9-0.4,2.6-1.1
		c0.7-0.7,1.1-1.6,1.1-2.5c0-1-0.4-1.9-1.1-2.6c-0.7-0.7-1.6-1.1-2.6-1.1C616.3,431.4,615.4,431.8,614.7,432.5z M595,410.7
		c1.1,0.8,2.1,2.1,2.8,4.1c0.8,1.9,1.1,4.9,1.1,8.8c0,3.3-0.4,6-1.1,8c-0.7,2.1-1.7,3.5-3,4.5c-1,0.7-2.3,1.1-3.8,1.1
		c-2.2,0-3.9-0.8-5.2-2.5c-1.8-2.4-2.7-6.1-2.7-11.2c0-4.3,0.6-7.5,1.7-9.8c1.4-2.8,3.5-4.2,6.2-4.2
		C592.5,409.5,593.9,409.9,595,410.7z M579.7,412.2c-3,3-4.5,6.6-4.5,11c0,3.9,1.2,7.3,3.4,10.2c2.9,3.6,7.1,5.4,12.4,5.4
		c5.3,0,9.4-1.9,12.4-5.7c2.2-2.9,3.3-6.1,3.3-9.9c0-4.4-1.5-8.1-4.4-11c-3-2.9-6.8-4.3-11.5-4.1
		C586.5,407.9,582.7,409.3,579.7,412.2z M567,407.8c-0.1,0.8-0.3,1.3-0.7,1.6c-0.4,0.4-0.8,0.5-1.2,0.5c-0.4,0-1.2-0.3-2.5-0.8
		c-2.3-0.9-4.5-1.3-6.6-1.3c-2.8,0-5.5,0.7-8,2.1c-2.5,1.4-4.5,3.4-6,5.9c-1.5,2.5-2.2,5.2-2.2,8.1c0,2.7,0.7,5.2,2,7.6
		c1.3,2.4,3.2,4.2,5.6,5.5c2.5,1.3,5.3,1.9,8.4,1.9c2.4,0,4.5-0.4,6.3-1.2c1.8-0.8,3.5-2.1,5.2-3.8v-2.6c-1.7,2-3.4,3.4-4.9,4.3
		c-1.6,0.8-3.3,1.2-5.1,1.2c-2.2,0-4.1-0.5-5.5-1.7c-1.4-1.1-2.5-2.8-3.2-5c-0.7-2.2-1-4.6-1-7.2c0-2.7,0.4-5.2,1.4-7.4
		c0.7-1.7,1.8-3.1,3.4-4.2c1.6-1.1,3.2-1.6,5.1-1.6c2.2,0,4.2,0.7,5.9,2.2c1.7,1.4,3,3.5,3.6,6.2h0.8v-10.3H567z M501.3,407.8
		c-0.2,0.9-0.4,1.4-0.6,1.7c-0.2,0.2-0.5,0.4-0.9,0.4c-0.4,0-1.1-0.2-2.1-0.7c-1-0.4-1.8-0.8-2.5-0.9c-0.9-0.2-1.8-0.4-2.8-0.4
		c-2.6,0-4.8,0.8-6.6,2.5c-1.7,1.7-2.6,3.7-2.6,6c0,1.4,0.3,2.6,0.9,3.8c0.6,1.1,1.5,2.2,2.7,3.1c1.2,0.9,3.1,2.1,5.8,3.4
		c1.9,0.9,3.3,1.7,4,2.3c0.8,0.6,1.3,1.2,1.7,1.8c0.4,0.7,0.5,1.3,0.5,2.1c0,1.2-0.5,2.2-1.5,3.1c-0.9,0.9-2.2,1.3-3.9,1.3
		c-2.1,0-4.1-0.8-5.9-2.5c-1.8-1.7-3.1-4.1-3.7-7.2h-0.8v11.2h0.8c0.3-0.6,0.6-1.1,1-1.3c0.4-0.3,0.8-0.4,1.2-0.4
		c0.4,0,1,0.1,1.7,0.4c1.3,0.5,2.3,0.8,3.1,1.1c0.8,0.2,1.7,0.3,2.7,0.3c3,0,5.4-0.9,7.3-2.7c1.9-1.8,2.9-3.9,2.9-6.4
		c0-1.9-0.6-3.7-1.8-5.2c-1.2-1.5-3.6-3.1-7-4.8c-2.5-1.2-4.1-2.1-4.7-2.5c-0.9-0.7-1.6-1.3-2.1-2c-0.3-0.5-0.4-1.1-0.4-1.7
		c0-1,0.4-2,1.3-2.7c0.9-0.8,2.1-1.2,3.5-1.2c1.9,0,3.7,0.8,5.4,2.3c1.7,1.5,2.7,3.5,3.1,5.9h0.9l-0.2-9.9H501.3z M449.4,408.5v8
		h0.8c0.3-2.2,1.1-3.9,2.4-5.1c0.9-0.8,2.4-1.3,4.3-1.3h2.2v22.9c0,1.5-0.1,2.4-0.2,2.8c-0.2,0.5-0.5,0.8-0.9,1.1
		c-0.5,0.3-1.2,0.4-2.1,0.4h-1v0.8h15.4v-0.8h-1c-0.8,0-1.5-0.1-2-0.4c-0.5-0.3-0.8-0.6-0.9-1c-0.2-0.4-0.3-1.3-0.3-2.9v-22.9h2.2
		c1.4,0,2.4,0.1,2.9,0.4c1,0.5,1.8,1.1,2.3,1.9c0.6,0.8,1.1,2.1,1.6,4h0.8v-8H449.4z M441.2,407.8c-0.1,0.8-0.3,1.3-0.7,1.6
		c-0.4,0.4-0.8,0.5-1.2,0.5c-0.4,0-1.2-0.3-2.6-0.8c-2.3-0.9-4.5-1.3-6.6-1.3c-2.8,0-5.5,0.7-8,2.1c-2.5,1.4-4.5,3.4-6,5.9
		c-1.5,2.5-2.2,5.2-2.2,8.1c0,2.7,0.7,5.2,2,7.6c1.3,2.4,3.2,4.2,5.6,5.5c2.5,1.3,5.3,1.9,8.4,1.9c2.4,0,4.5-0.4,6.3-1.2
		c1.8-0.8,3.5-2.1,5.2-3.8v-2.6c-1.7,2-3.4,3.4-4.9,4.3c-1.6,0.8-3.3,1.2-5.1,1.2c-2.2,0-4.1-0.5-5.5-1.7c-1.4-1.1-2.5-2.8-3.2-5
		c-0.7-2.2-1-4.6-1-7.2c0-2.7,0.4-5.2,1.4-7.4c0.7-1.7,1.8-3.1,3.4-4.2c1.6-1.1,3.2-1.6,5.1-1.6c2.2,0,4.2,0.7,5.9,2.2
		c1.7,1.4,3,3.5,3.6,6.2h0.8v-10.3H441.2z M377.6,409.2c1.3,0,2.1,0.1,2.6,0.4c0.4,0.2,0.8,0.6,1,1c0.2,0.4,0.3,1.5,0.3,3.2v14.5
		c0,2.5,0.4,4.4,1.2,5.9c0.8,1.4,2.1,2.6,4.1,3.6c1.4,0.7,3.4,1,5.9,1c3.1,0,5.5-0.7,7.3-1.9c1.7-1.3,2.9-2.7,3.4-4.3
		c0.4-1.5,0.7-4,0.7-7.5v-11.3c0-1.2,0.1-2.1,0.3-2.5c0.3-0.7,0.7-1.2,1.2-1.5c0.5-0.3,1.3-0.5,2.1-0.5h0.6v-0.8h-10.3v0.8
		c1.2,0,2.2,0.2,2.8,0.5c0.4,0.2,0.8,0.6,1.1,1.2c0.3,0.6,0.4,1.5,0.4,2.9v12.1c0,3.1-0.3,5.4-0.8,6.6c-0.5,1.3-1.4,2.3-2.5,3
		c-1.2,0.7-2.5,1.1-4.1,1.1c-1.4,0-2.6-0.3-3.4-0.9c-0.9-0.6-1.6-1.3-2-2.1c-0.4-0.8-0.6-2.6-0.6-5.3v-14.5c0-1.7,0.1-2.8,0.3-3.2
		c0.2-0.4,0.5-0.8,0.9-1c0.4-0.2,1.2-0.4,2.4-0.4h0.8v-0.8h-15.3V409.2z M358.1,410.8c1.5,0.6,2.7,1.8,3.7,3.6
		c1.2,2.3,1.8,5.3,1.8,9.1c0,4.7-0.9,8.2-2.6,10.4c-1.3,1.7-3.1,2.5-5.6,2.5c-0.7,0-1.3-0.1-1.7-0.3c-0.3-0.2-0.4-0.4-0.6-0.7
		c-0.1-0.3-0.2-1-0.2-2.2v-23.1C355.3,410.1,357.1,410.3,358.1,410.8z M354.9,438.1c1.9,0,3.3-0.1,4.2-0.3c2-0.4,3.7-0.9,5.1-1.6
		c1.4-0.7,2.6-1.6,3.7-2.7c1.1-1.2,2-2.6,2.6-4.4c0.7-1.7,1-3.7,1-5.8c0-3-0.7-5.7-2.1-8.1c-1.3-2.4-3.4-4.2-6-5.4
		c-2.2-0.9-5-1.4-8.6-1.4h-13.2v0.8h1c0.8,0,1.5,0.1,2,0.4c0.5,0.3,0.8,0.6,1,1c0.1,0.4,0.2,1.3,0.2,2.9v19.6c0,1.5,0,2.5-0.2,2.8
		c-0.2,0.5-0.6,0.8-1,1.1c-0.4,0.3-1.1,0.4-2,0.4h-1v0.8H354.9z M324.4,410.7c1.1,0.8,2.1,2.1,2.8,4.1c0.8,1.9,1.1,4.9,1.1,8.8
		c0,3.3-0.4,6-1.1,8c-0.7,2.1-1.7,3.5-3,4.5c-1,0.7-2.3,1.1-3.8,1.1c-2.2,0-3.9-0.8-5.2-2.5c-1.8-2.4-2.7-6.1-2.7-11.2
		c0-4.3,0.6-7.5,1.7-9.8c1.4-2.8,3.5-4.2,6.2-4.2C321.9,409.5,323.3,409.9,324.4,410.7z M309.1,412.2c-3,3-4.5,6.6-4.5,11
		c0,3.9,1.2,7.3,3.4,10.2c2.9,3.6,7.1,5.4,12.4,5.4c5.3,0,9.4-1.9,12.3-5.7c2.2-2.9,3.3-6.1,3.3-9.9c0-4.4-1.5-8.1-4.4-11
		c-3-2.9-6.8-4.3-11.5-4.1C315.8,407.9,312.1,409.3,309.1,412.2z M281.6,410.1c2.4,0,4.1,0.5,5.1,1.6c1,1.1,1.6,2.7,1.6,5
		c0,1.6-0.3,2.8-0.8,3.8c-0.6,0.9-1.4,1.6-2.4,2c-1,0.4-2.5,0.5-4.6,0.5h-1.3v-12.9H281.6z M281.2,424.6l9.5,13.5h9.4v-0.8
		c-0.8,0-1.5-0.3-2.1-0.8c-0.4-0.3-1-1.1-2-2.4l-7.1-10.1c1.8-0.4,3.2-1.1,4.2-2c1.6-1.4,2.4-3.3,2.4-5.5c0-1.8-0.5-3.4-1.6-4.7
		c-1.1-1.3-2.4-2.2-4.1-2.7c-1.7-0.5-4.3-0.8-7.9-0.8h-13.8v0.8c1.3,0,2.3,0.1,2.8,0.4c0.5,0.3,0.8,0.6,1,1c0.2,0.4,0.3,1.4,0.3,3
		V433c0,1.6-0.1,2.6-0.3,3c-0.2,0.4-0.5,0.8-1,1c-0.5,0.3-1.4,0.4-2.8,0.4v0.8h15.2v-0.8c-1.3,0-2.3-0.1-2.8-0.4
		c-0.5-0.3-0.9-0.6-1-1c-0.2-0.5-0.3-1.4-0.3-3.1v-8.4H281.2z M249.7,410.2c1.9,0,3.4,0.5,4.3,1.5c0.9,1,1.4,2.6,1.4,4.9
		c0,2.2-0.5,3.9-1.4,4.9c-1,1.1-2.4,1.6-4.1,1.6c-0.3,0-0.6,0-1.1,0v-12.8H249.7z M256,424.2c2.1-0.5,3.8-1.4,5-2.8
		c1.2-1.4,1.8-3.1,1.8-5c0-2.3-0.9-4.2-2.8-5.7c-1.9-1.5-4.9-2.3-9.2-2.3h-12.9v0.8c1.3,0,2.3,0.1,2.8,0.4c0.5,0.3,0.8,0.6,1,1
		c0.2,0.4,0.3,1.4,0.3,3v19.3c0,1.6-0.1,2.6-0.3,3c-0.2,0.4-0.5,0.8-1,1c-0.5,0.3-1.4,0.4-2.8,0.4v0.8H253v-0.8
		c-1.3,0-2.3-0.1-2.8-0.4c-0.5-0.3-0.8-0.6-1-1c-0.2-0.4-0.3-1.4-0.3-3v-8.2C252.2,424.7,254.6,424.5,256,424.2z M200,407.8
		c-0.2,0.9-0.4,1.4-0.6,1.7c-0.2,0.2-0.5,0.4-0.9,0.4c-0.4,0-1.1-0.2-2.1-0.7c-1-0.4-1.8-0.8-2.5-0.9c-0.9-0.2-1.8-0.4-2.8-0.4
		c-2.6,0-4.8,0.8-6.6,2.5c-1.7,1.7-2.6,3.7-2.6,6c0,1.4,0.3,2.6,0.9,3.8c0.6,1.1,1.5,2.2,2.7,3.1c1.2,0.9,3.1,2.1,5.8,3.4
		c1.9,0.9,3.3,1.7,4,2.3c0.8,0.6,1.3,1.2,1.7,1.8c0.4,0.7,0.5,1.3,0.5,2.1c0,1.2-0.5,2.2-1.5,3.1c-0.9,0.9-2.2,1.3-3.9,1.3
		c-2.1,0-4.1-0.8-5.9-2.5c-1.8-1.7-3.1-4.1-3.7-7.2H182v11.2h0.8c0.3-0.6,0.6-1.1,1-1.3c0.4-0.3,0.8-0.4,1.2-0.4
		c0.4,0,1,0.1,1.7,0.4c1.2,0.5,2.3,0.8,3.1,1.1c0.8,0.2,1.7,0.3,2.7,0.3c3,0,5.4-0.9,7.3-2.7c1.9-1.8,2.9-3.9,2.9-6.4
		c0-1.9-0.6-3.7-1.8-5.2c-1.2-1.5-3.6-3.1-7-4.8c-2.5-1.2-4.1-2.1-4.7-2.5c-0.9-0.7-1.6-1.3-2.1-2c-0.3-0.5-0.4-1.1-0.4-1.7
		c0-1,0.4-2,1.3-2.7c0.9-0.8,2.1-1.2,3.5-1.2c1.9,0,3.7,0.8,5.4,2.3c1.7,1.5,2.7,3.5,3.1,5.9h0.9l-0.2-9.9H200z M145.1,409.2
		c1.3,0,2.1,0.1,2.6,0.4c0.5,0.2,0.8,0.6,1,1c0.2,0.4,0.3,1.5,0.3,3.2v14.5c0,2.5,0.4,4.4,1.2,5.9c0.8,1.4,2.2,2.6,4.1,3.6
		c1.4,0.7,3.4,1,5.9,1c3.1,0,5.5-0.7,7.3-1.9c1.7-1.3,2.9-2.7,3.4-4.3c0.5-1.5,0.7-4,0.7-7.5v-11.3c0-1.2,0.1-2.1,0.3-2.5
		c0.3-0.7,0.7-1.2,1.2-1.5c0.5-0.3,1.3-0.5,2.1-0.5h0.6v-0.8h-10.2v0.8c1.2,0,2.1,0.2,2.8,0.5c0.5,0.2,0.8,0.6,1.1,1.2
		c0.3,0.6,0.4,1.5,0.4,2.9v12.1c0,3.1-0.3,5.4-0.8,6.6c-0.5,1.3-1.4,2.3-2.5,3c-1.2,0.7-2.5,1.1-4.1,1.1c-1.4,0-2.5-0.3-3.4-0.9
		c-0.9-0.6-1.6-1.3-2-2.1c-0.4-0.8-0.6-2.6-0.6-5.3v-14.5c0-1.7,0.1-2.8,0.3-3.2c0.2-0.4,0.5-0.8,0.9-1c0.4-0.2,1.2-0.4,2.4-0.4h0.8
		v-0.8h-15.3V409.2z M122.7,410.1c2.4,0,4.1,0.5,5.1,1.6c1,1.1,1.6,2.7,1.6,5c0,1.6-0.3,2.8-0.8,3.8c-0.6,0.9-1.4,1.6-2.4,2
		c-1,0.4-2.5,0.5-4.6,0.5h-1.3v-12.9H122.7z M122.4,424.6l9.5,13.5h9.4v-0.8c-0.8,0-1.5-0.3-2.1-0.8c-0.4-0.3-1-1.1-2-2.4l-7.1-10.1
		c1.8-0.4,3.2-1.1,4.2-2c1.6-1.4,2.4-3.3,2.4-5.5c0-1.8-0.5-3.4-1.6-4.7c-1.1-1.3-2.4-2.2-4.1-2.7c-1.7-0.5-4.3-0.8-7.9-0.8h-13.8
		v0.8c1.3,0,2.3,0.1,2.8,0.4c0.5,0.3,0.8,0.6,1,1c0.2,0.4,0.3,1.4,0.3,3V433c0,1.6-0.1,2.6-0.3,3c-0.2,0.4-0.5,0.8-1,1
		c-0.5,0.3-1.4,0.4-2.8,0.4v0.8h15.2v-0.8c-1.3,0-2.3-0.1-2.8-0.4c-0.5-0.3-0.8-0.6-1-1c-0.2-0.5-0.3-1.4-0.3-3.1v-8.4H122.4z
		 M77,408.5v8h0.8c0.3-2.2,1.1-3.9,2.4-5.1c0.9-0.8,2.4-1.3,4.3-1.3h2.2v22.9c0,1.5-0.1,2.4-0.2,2.8c-0.2,0.5-0.5,0.8-0.9,1.1
		c-0.5,0.3-1.2,0.4-2.1,0.4h-1v0.8H98v-0.8h-1c-0.8,0-1.5-0.1-2-0.4c-0.5-0.3-0.8-0.6-0.9-1c-0.2-0.4-0.3-1.3-0.3-2.9v-22.9h2.2
		c1.4,0,2.4,0.1,2.9,0.4c1,0.5,1.8,1.1,2.3,1.9c0.6,0.8,1.1,2.1,1.6,4h0.8v-8H77z M70.1,437.4c-0.8,0-1.5-0.1-2-0.4
		c-0.4-0.3-0.8-0.6-0.9-1c-0.2-0.4-0.3-1.3-0.3-2.9v-19.6c0-1.5,0.1-2.4,0.2-2.8c0.2-0.5,0.5-0.8,0.9-1.1c0.5-0.3,1.2-0.4,2.1-0.4h1
		v-0.8H55.6v0.8h1c0.8,0,1.5,0.1,2,0.4c0.5,0.3,0.8,0.6,1,1c0.1,0.4,0.2,1.3,0.2,2.9v19.6c0,1.5-0.1,2.4-0.2,2.8
		c-0.2,0.5-0.5,0.8-0.9,1.1c-0.5,0.3-1.2,0.4-2.1,0.4h-1v0.8H71v-0.8H70.1z M48.1,407.8c-0.1,0.8-0.3,1.3-0.7,1.6
		c-0.4,0.4-0.8,0.5-1.2,0.5c-0.4,0-1.2-0.3-2.5-0.8c-2.3-0.9-4.5-1.3-6.6-1.3c-2.8,0-5.5,0.7-8,2.1c-2.5,1.4-4.5,3.4-6,5.9
		c-1.5,2.5-2.2,5.2-2.2,8.1c0,2.7,0.7,5.2,2,7.6c1.3,2.4,3.2,4.2,5.6,5.5c2.5,1.3,5.3,1.9,8.4,1.9c2.4,0,4.5-0.4,6.3-1.2
		c1.8-0.8,3.5-2.1,5.2-3.8v-2.6c-1.7,2-3.4,3.4-4.9,4.3c-1.6,0.8-3.3,1.2-5.1,1.2c-2.2,0-4.1-0.5-5.5-1.7c-1.4-1.1-2.5-2.8-3.2-5
		c-0.7-2.2-1-4.6-1-7.2c0-2.7,0.5-5.2,1.4-7.4c0.7-1.7,1.8-3.1,3.4-4.2c1.6-1.1,3.2-1.6,5.1-1.6c2.2,0,4.2,0.7,5.9,2.2
		c1.7,1.4,3,3.5,3.6,6.2H49v-10.3H48.1z"/>
	<polygon class="st0" points="54.6,280.1 72.3,335.1 91.2,280.1 119.7,280.1 85.7,383.9 58.6,383.9 22.6,280.1 	"/>
	<polygon class="st2" points="54.6,280.1 72.3,335.1 91.2,280.1 119.7,280.1 85.7,383.9 58.6,383.9 22.6,280.1 	"/>
	<path class="st0" d="M308,280.1c57.2-2.2,69.1,3.2,77.6,25.6c11.4,30.4-13.5,57.1-48.9,53.1l0,25l-28.6-0.1L308,280.1z
		 M336.4,307.7l0.1,25.5C361.7,340.3,363.7,302.8,336.4,307.7"/>
	<path class="st2" d="M308,280.1c57.2-2.2,69.1,3.2,77.6,25.6c11.4,30.4-13.5,57.1-48.9,53.1l0,25l-28.6-0.1L308,280.1z
		 M336.4,307.7l0.1,25.5C361.7,340.3,363.7,302.8,336.4,307.7z"/>
	<path class="st0" d="M178.7,291.6l-0.2,22.2l11.2,0.1v21.5l-11.2,0l0,25.9l11.9,0l0,22.6l-25.9,0.1c-9.9,0.2-13.2-6.4-13.2-16.5
		l-0.1-32.2l-10.4,0l0-21.4l10.4,0l-0.2-22.1L178.7,291.6z"/>
	<path class="st2" d="M178.7,291.6l-0.2,22.2l11.2,0.1v21.5l-11.2,0l0,25.9l11.9,0l0,22.6l-25.9,0.1c-9.9,0.2-13.2-6.4-13.2-16.5
		l-0.1-32.2l-10.4,0l0-21.4l10.4,0l-0.2-22.1L178.7,291.6z"/>
	<path class="st0" d="M465,384l-24.9-0.1c-1.3-1.3-1.6-2.6-2-4.9c-13.4,11.1-37,4.3-45.2-7.3c-18.7-26.3,1.1-63.5,33-63.5
		c15.5,0,39.3,7.8,39.2,33.9L465,384z M410.7,347.3c0.2,12.8,12.9,15.1,21,10.5c5.4-3.1,8.5-10,5.3-17.2c-1.2-2.8-6.3-8.1-14.7-6.7
		C415.2,335,410.5,339.4,410.7,347.3"/>
	<path class="st2" d="M465,384l-24.9-0.1c-1.3-1.3-1.6-2.6-2-4.9c-13.4,11.1-37,4.3-45.2-7.3c-18.7-26.3,1.1-63.5,33-63.5
		c15.5,0,39.3,7.8,39.2,33.9L465,384z M410.7,347.3c0.2,12.8,12.9,15.1,21,10.5c5.4-3.1,8.5-10,5.3-17.2c-1.2-2.8-6.3-8.1-14.7-6.7
		C415.2,335,410.5,339.4,410.7,347.3z"/>
	<polygon class="st0" points="113,313.7 137.6,313.7 137.6,383.9 112.9,383.9 	"/>
	<polygon class="st2" points="113,313.7 137.6,313.7 137.6,383.9 112.9,383.9 	"/>
	<path class="st0" d="M272,384l-24.9-0.1c-1.3-1.3-1.6-2.6-2-4.9c-13.4,11.1-37,4.3-45.2-7.3c-18.7-26.3,1.1-63.5,33-63.5
		c15.5,0,39.3,7.8,39.2,33.9L272,384z M217.7,347.3c0.2,12.8,12.9,15.1,21,10.5c5.4-3.1,8.5-10,5.3-17.2c-1.2-2.8-6.3-8.1-14.7-6.7
		C222.2,335,217.5,339.4,217.7,347.3"/>
	<path class="st2" d="M272,384l-24.9-0.1c-1.3-1.3-1.6-2.6-2-4.9c-13.4,11.1-37,4.3-45.2-7.3c-18.7-26.3,1.1-63.5,33-63.5
		c15.5,0,39.3,7.8,39.2,33.9L272,384z M217.7,347.3c0.2,12.8,12.9,15.1,21,10.5c5.4-3.1,8.5-10,5.3-17.2c-1.2-2.8-6.3-8.1-14.7-6.7
		C222.2,335,217.5,339.4,217.7,347.3z"/>
	<rect x="276.2" y="313.5" class="st0" width="24.3" height="21.7"/>
	<rect x="276.2" y="313.5" class="st2" width="24.3" height="21.7"/>
	<path class="st0" d="M577,291.7l0,22.2l11.2,0v21.5l-11.2,0l0,25.9l11.9,0l0,22.6L563,384c-9.9,0.2-13.2-6.4-13.2-16.5l-0.1-32.2
		c-5.7,0-11.4,0-17.1-0.1l-8.3,10.8l22.1,37.9l-29.8,0l-16.7-25.1l0,25l-25.8,0L474,280.2l25.7-0.1l0,54.9l15.9-21.2
		c11.4,0,22.7,0,34,0v-22.2L577,291.7z"/>
	<path class="st2" d="M577,291.7l0,22.2l11.2,0v21.5l-11.2,0l0,25.9l11.9,0l0,22.6L563,384c-9.9,0.2-13.2-6.4-13.2-16.5l-0.1-32.2
		c-5.7,0-11.4,0-17.1-0.1l-8.3,10.8l22.1,37.9l-29.8,0l-16.7-25.1l0,25l-25.8,0L474,280.2l25.7-0.1l0,54.9l15.9-21.2
		c11.4,0,22.7,0,34,0v-22.2L577,291.7z"/>
	<path class="st3" d="M601.2,381.1v-14.4h5.9c1.5,0,2.6,0.1,3.2,0.4c0.7,0.3,1.2,0.7,1.6,1.4c0.4,0.7,0.6,1.4,0.6,2.3
		c0,1.1-0.3,2-0.9,2.7c-0.6,0.7-1.5,1.1-2.7,1.3c0.6,0.4,1.1,0.8,1.5,1.2c0.4,0.4,0.9,1.2,1.6,2.3l1.7,2.8h-3.4l-2-3.1
		c-0.7-1.1-1.2-1.8-1.5-2.1c-0.3-0.3-0.5-0.5-0.8-0.6c-0.3-0.1-0.8-0.2-1.4-0.2H604v6H601.2z M604,372.8h2.1c1.3,0,2.2-0.1,2.5-0.2
		c0.3-0.1,0.6-0.3,0.8-0.6c0.2-0.3,0.3-0.6,0.3-1.1c0-0.5-0.1-0.9-0.4-1.2c-0.3-0.3-0.6-0.5-1.1-0.6c-0.2,0-0.9,0-2,0H604V372.8z"/>
	<path class="st0" d="M606.6,360.8c7.2,0,13.1,5.9,13.1,13.1c0,7.2-5.9,13.1-13.1,13.1c-7.2,0-13.1-5.9-13.1-13.1
		C593.5,366.6,599.3,360.8,606.6,360.8 M606.6,363.2c5.9,0,10.7,4.8,10.7,10.7c0,5.9-4.8,10.7-10.7,10.7c-5.9,0-10.7-4.8-10.7-10.7
		C595.8,367.9,600.6,363.2,606.6,363.2"/>
	<path class="st4" d="M141.2,292.9c0,8.4-6.8,15.1-15.1,15.1s-15.1-6.8-15.1-15.1c0-8.4,6.8-15.1,15.1-15.1S141.2,284.6,141.2,292.9
		"/>
	<circle class="st5" cx="126.1" cy="292.9" r="15.1"/>
	<path class="st6" d="M141.2,256.5c0,8.4-6.8,15.1-15.1,15.1s-15.1-6.8-15.1-15.1c0-8.4,6.8-15.1,15.1-15.1S141.2,248.1,141.2,256.5
		"/>
	<circle class="st5" cx="126.1" cy="256.5" r="15.1"/>
	<path class="st7" d="M141.2,219.4c0,8.4-6.8,15.1-15.1,15.1s-15.1-6.8-15.1-15.1c0-8.4,6.8-15.1,15.1-15.1S141.2,211,141.2,219.4"
		/>
	<circle class="st8" cx="126.1" cy="219.4" r="15.1"/>
</g>
</svg>
